<svg xmlns="http://www.w3.org/2000/svg" xmlns:xlink="http://www.w3.org/1999/xlink" viewBox="0 0 1529.27 197.01"><defs><style>.cls-1{fill:url(#linear-gradient);}.cls-2{fill:url(#linear-gradient-2);}.cls-3{fill:url(#linear-gradient-3);}.cls-4{fill:url(#linear-gradient-4);}.cls-5{fill:url(#linear-gradient-5);}.cls-6{fill:url(#linear-gradient-6);}.cls-7{opacity:0.5;fill:url(#radial-gradient);}.cls-8{fill:url(#linear-gradient-7);}</style><linearGradient id="linear-gradient" x1="548.58" y1="115" x2="548.58" gradientUnits="userSpaceOnUse"><stop offset="0" stop-color="#e6e6e6"/><stop offset="0.16" stop-color="#b9b9b9"/><stop offset="0.36" stop-color="#8a8a8a"/><stop offset="0.55" stop-color="#646464"/><stop offset="0.73" stop-color="#494949"/><stop offset="0.88" stop-color="#393939"/><stop offset="1" stop-color="#333"/></linearGradient><linearGradient id="linear-gradient-2" x1="305.58" x2="305.58" xlink:href="#linear-gradient"/><linearGradient id="linear-gradient-3" x1="61.58" x2="61.58" xlink:href="#linear-gradient"/><linearGradient id="linear-gradient-4" x1="1038.58" x2="1038.58" xlink:href="#linear-gradient"/><linearGradient id="linear-gradient-5" x1="1283.58" x2="1283.58" xlink:href="#linear-gradient"/><linearGradient id="linear-gradient-6" x1="1528.58" x2="1528.58" xlink:href="#linear-gradient"/><radialGradient id="radial-gradient" cx="792.37" cy="151.36" r="686.65" gradientTransform="translate(0 103.9) scale(1 0.33)" gradientUnits="userSpaceOnUse"><stop offset="0" stop-color="#e6e6e6" stop-opacity="0.8"/><stop offset="0.39" stop-color="#939393" stop-opacity="0.8"/><stop offset="0.58" stop-color="#4d4d4d" stop-opacity="0.8"/><stop offset="1" stop-color="#333" stop-opacity="0.8"/></radialGradient><linearGradient id="linear-gradient-7" x1="1.45" y1="197.01" x2="1.45" y2="194.01" gradientUnits="userSpaceOnUse"><stop offset="0" stop-color="#333"/><stop offset="1"/></linearGradient></defs><title>footer divider lines</title><g id="Layer_2" data-name="Layer 2"><g id="HEADER_BOUNDS" data-name="HEADER BOUNDS"><path class="cls-1" d="M547.9,6.09s0,108.43.6,108.91.77-108.91.77-108.91C549.27-2,547.9-2,547.9,6.09Z"/><path class="cls-2" d="M304.9,6.09s0,108.43.6,108.91.77-108.91.77-108.91C306.27-2,304.9-2,304.9,6.09Z"/><path class="cls-3" d="M60.9,6.09s0,108.43.6,108.91.77-108.91.77-108.91C62.27-2,60.9-2,60.9,6.09Z"/><path class="cls-4" d="M1037.9,6.09s0,108.43.6,108.91.77-108.91.77-108.91C1039.27-2,1037.9-2,1037.9,6.09Z"/><path class="cls-5" d="M1282.9,6.09s0,108.43.6,108.91.77-108.91.77-108.91C1284.27-2,1282.9-2,1282.9,6.09Z"/><path class="cls-6" d="M1527.9,6.09s0,108.43.6,108.91.77-108.91.77-108.91C1529.27-2,1527.9-2,1527.9,6.09Z"/><path class="cls-7" d="M790.14,151.36c-410.13,0-734.85,4-731.61,4l724.61,2,743-2C1532.58,155.36,1205.14,151.36,790.14,151.36Z"/><path class="cls-8" d="M1.45,197a1.5,1.5,0,0,0,0-3,1.5,1.5,0,0,0,0,3Z"/></g></g></svg>