<svg xmlns="http://www.w3.org/2000/svg" xmlns:xlink="http://www.w3.org/1999/xlink" viewBox="0 0 1850.5 115.5"><defs><style>.cls-1{stroke-miterlimit:10;fill:url(#linear-gradient);stroke:url(#linear-gradient-2);}</style><linearGradient id="linear-gradient" x1="925.25" y1="115" x2="925.25" y2="0.5" gradientUnits="userSpaceOnUse"><stop offset="0" stop-color="#0071bc" stop-opacity="0.35"/><stop offset="0.27" stop-color="#5688a8" stop-opacity="0.23"/><stop offset="0.33" stop-color="#6e8ea3" stop-opacity="0.2"/><stop offset="1" stop-color="#999" stop-opacity="0.3"/></linearGradient><linearGradient id="linear-gradient-2" y1="57.75" x2="1850.5" y2="57.75" gradientUnits="userSpaceOnUse"><stop offset="0" stop-color="#b3b3b3" stop-opacity="0.4"/><stop offset="0.88" stop-color="#f2f2f2" stop-opacity="0.3"/></linearGradient></defs><title>Footer</title><g id="Layer_2" data-name="Layer 2"><g id="Footer"><path class="cls-1" d="M1839,115H11.49C-.68,115-3.81,95.87,7.56,90.93l52.36-22.8a31,31,0,0,1,12.42-2.61H213.05c9.94,0,19.47-4.48,26.51-12.45l37.69-42.74A27.9,27.9,0,0,1,298.17.5H1533.33a27.9,27.9,0,0,1,20.92,9.83l37.69,42.74c7,8,16.57,12.45,26.51,12.45h159.71a31,31,0,0,1,12.42,2.61l52.36,22.8C1854.31,95.87,1851.18,115,1839,115Z"/></g></g></svg>