<svg xmlns="http://www.w3.org/2000/svg" xmlns:xlink="http://www.w3.org/1999/xlink" viewBox="0 0 295 344.5">
    <defs>
        <linearGradient id="linear-gradient" x1="0.5" y1="17.25" x2="124.23" y2="17.25" gradientUnits="userSpaceOnUse">
            <stop offset="0" stop-color="#0071bc" stop-opacity="0.35"/>
            <stop offset="0.1" stop-color="#4590c1" stop-opacity="0.33"/>
            <stop offset="0.23" stop-color="#81abc6" stop-opacity="0.32"/>
            <stop offset="0.38" stop-color="#acbeca" stop-opacity="0.31"/>
            <stop offset="0.57" stop-color="#c5c9cb" stop-opacity="0.3"/>
            <stop offset="1" stop-color="#ccc" stop-opacity="0.3"/>
        </linearGradient>
        <linearGradient id="linear-gradient-2" y1="17.25" x2="124.23" y2="17.25" gradientUnits="userSpaceOnUse">
            <stop offset="0" stop-color="#b3b3b3" stop-opacity="0.4"/>
            <stop offset="0.88" stop-color="#f2f2f2" stop-opacity="0.3"/>
        </linearGradient>
        <linearGradient id="linear-gradien" y1="17.25" x2="124.23" y2="17.25" gradientUnits="userSpaceOnUse">
            <stop offset="0" stop-color="#000" stop-opacity="0.4"/>
            <stop offset="0.88" stop-color="#000" stop-opacity="0.3"/>
        </linearGradient>
        <linearGradient id="linear-gradient-3" x1="244.55" y1="189" x2="294.5" y2="189" gradientUnits="userSpaceOnUse">
            <stop offset="0" stop-color="#0071bc" stop-opacity="0.2"/>
            <stop offset="0.46" stop-color="#4182ad" stop-opacity="0.29"/>
            <stop offset="1" stop-color="#999" stop-opacity="0.4"/>
        </linearGradient>
        <linearGradient id="linear-gradient-4" x1="244.55" y1="189" x2="295" y2="189" gradientUnits="userSpaceOnUse">
            <stop offset="0.12" stop-color="#e6e6e6" stop-opacity="0.3"/>
            <stop offset="0.52" stop-color="#939393" stop-opacity="0.4"/>
            <stop offset="1" stop-color="#f2f2f2" stop-opacity="0.5"/>
        </linearGradient>
        <linearGradient id="linear-gradient-5" x1="12" y1="189.5" x2="26" y2="189.5" xlink:href="#linear-gradient-3"/>
        <linearGradient id="linear-gradient-6" x1="11.5" y1="189.5" x2="26.5" y2="189.5" xlink:href="#linear-gradient-4"/>
        <linearGradient id="linear-gradient-7" x1="26" y1="190" x2="40" y2="190" xlink:href="#linear-gradient-3"/>
        <linearGradient id="linear-gradient-8" x1="25.5" y1="190" x2="40.5" y2="190" xlink:href="#linear-gradient-4"/>
        <linearGradient id="linear-gradient-9" x1="0.5" x2="266.5" xlink:href="#linear-gradient-3"/>
        <linearGradient id="linear-gradient-10" x1="0" x2="267" xlink:href="#linear-gradient-4"/>
        <linearGradient id="linear-gradient-11" x1="230.55" x2="280.5" xlink:href="#linear-gradient-3"/>
        <linearGradient id="linear-gradient-12" x1="230.55" x2="281" xlink:href="#linear-gradient-4"/>
        <linearGradient id="linear-gradient-13" x1="99.27" y1="17.25" x2="152.23" y2="17.25" xlink:href="#linear-gradient-3"/>
        <linearGradient id="linear-gradient-14" x1="99.27" y1="17.25" x2="152.23" y2="17.25" xlink:href="#linear-gradient-4"/>
        <linearGradient id="linear-gradient-15" x1="85.27" y1="17.25" x2="138.23" y2="17.25" xlink:href="#linear-gradient-3"/>
        <linearGradient id="linear-gradient-16" x1="85.27" y1="17.25" x2="138.23" y2="17.25" xlink:href="#linear-gradient-4"/>
    </defs>
    <title>
        left notification panel
    </title>
   
            
                
                                
           
     
    <g id="Layer_2" data-name="Layer 2" >
        <g id="SideBar">
            <path d="M124.23,34H.5V7.09A6.59,6.59,0,0,1,7.09.5H85.27a6.58,6.58,0,0,1,4.66,1.93l29.64,29.64A6.58,6.58,0,0,0,124.23,34Z" style="opacity:.75;fill:url(#linear-gradient);stroke:url(#linear-gradient-2);stroke-miterlimit:10"/>
            <path d="M294.5,47V304.49a6.63,6.63,0,0,1-1.67,4.39L263.47,341.8a6.59,6.59,0,0,1-4.92,2.2h-14a6.59,6.59,0,0,0,4.92-2.2l29.36-32.92a6.63,6.63,0,0,0,1.67-4.39V47a13,13,0,0,0-13-13h14A13,13,0,0,1,294.5,47Z" style="fill:url(#linear-gradient-3);stroke:url(#linear-gradient-4);opacity:.4;stroke-miterlimit:10"/>
            <rect x="12" y="65" width="14" height="249" style="fill:url(#linear-gradient-5);stroke:url(#linear-gradient-6);opacity:.6;stroke-miterlimit:10"/>
            <rect x="26" y="65.5" width="14" height="249" style="fill:url(#linear-gradient-7);stroke:url(#linear-gradient-8);opacity:.4;stroke-miterlimit:10"/>
            <path d="M253.52,34H.5V337.41A6.59,6.59,0,0,0,7.09,344H230.55a6.59,6.59,0,0,0,4.92-2.2l29.36-32.92a6.63,6.63,0,0,0,1.67-4.39V47A13,13,0,0,0,253.52,34Zm-21,240.27a6.58,6.58,0,0,1-1.93,4.66l-33.14,33.14a6.58,6.58,0,0,1-4.66,1.93H12V65H225.91a6.59,6.59,0,0,1,6.59,6.59Z" style="opacity:.8;fill:url(#linear-gradient-9);stroke:url(#linear-gradient-10);stroke-miterlimit:10"/>
            <path d="M280.5,47V304.49a6.63,6.63,0,0,1-1.67,4.39L249.47,341.8a6.59,6.59,0,0,1-4.92,2.2h-14a6.59,6.59,0,0,0,4.92-2.2l29.36-32.92a6.63,6.63,0,0,0,1.67-4.39V47a13,13,0,0,0-13-13h14A13,13,0,0,1,280.5,47Z" style="fill:url(#linear-gradient-11);stroke:url(#linear-gradient-12);opacity:.6;stroke-miterlimit:10" />
            <path d="M152.23,34h-14a6.58,6.58,0,0,1-4.66-1.93L103.93,2.43A6.58,6.58,0,0,0,99.27.5h14a6.58,6.58,0,0,1,4.66,1.93l29.64,29.64A6.58,6.58,0,0,0,152.23,34Z" style="fill:url(#linear-gradient-13);stroke:url(#linear-gradient-14);opacity:.4;stroke-miterlimit:10"/>
            <path d="M138.23,34h-14a6.58,6.58,0,0,1-4.66-1.93L89.93,2.43A6.58,6.58,0,0,0,85.27.5h14a6.58,6.58,0,0,1,4.66,1.93l29.64,29.64A6.58,6.58,0,0,0,138.23,34Z" style="fill:url(#linear-gradient-15);stroke:url(#linear-gradient-16);opacity:.6;stroke-miterlimit:10;"/>
        </g>

        
    </g>
    <g >
    <rect id="" style="fill:url(#fff)" x="41" y="65" width="192" height="215" />
    <foreignobject x="45" y="70" width="190" height="250">
            
                <div id="asd" class="text-danger">Here is a long text that runs more than one line and works as a paragraph</div>
                
               
           
        </foreignobject>
    </g>
</svg>
