<svg xmlns="http://www.w3.org/2000/svg" xmlns:xlink="http://www.w3.org/1999/xlink" viewBox="0 0 180.74 19.44"><defs><style>.cls-1{isolation:isolate;}.cls-2{opacity:0.85;}.cls-3{fill:#e6e6e6;}.cls-4{mix-blend-mode:screen;fill:url(#linear-gradient);}.cls-5{fill:url(#linear-gradient-2);}.cls-6{fill:url(#linear-gradient-3);}.cls-7{fill:url(#linear-gradient-4);}.cls-8{fill:url(#linear-gradient-5);}.cls-9{fill:url(#linear-gradient-6);}.cls-10{fill:url(#linear-gradient-7);}.cls-11{fill:url(#linear-gradient-8);}.cls-12{fill:url(#linear-gradient-9);}.cls-13{fill:url(#linear-gradient-10);}.cls-14{fill:url(#linear-gradient-11);}.cls-15{fill:url(#linear-gradient-12);}.cls-16{fill:url(#linear-gradient-13);}.cls-17{fill:url(#linear-gradient-14);}.cls-18{fill:url(#linear-gradient-15);}.cls-19{fill:url(#linear-gradient-16);}.cls-20{fill:url(#linear-gradient-17);}.cls-21{fill:url(#linear-gradient-18);}.cls-22{fill:url(#linear-gradient-19);}.cls-23{fill:url(#linear-gradient-20);}.cls-24{fill:url(#linear-gradient-21);}.cls-25{fill:url(#linear-gradient-22);}.cls-26{fill:url(#linear-gradient-23);}.cls-27{fill:url(#linear-gradient-24);}.cls-28{fill:url(#linear-gradient-25);}.cls-29{fill:url(#linear-gradient-26);}.cls-30{fill:url(#linear-gradient-27);}.cls-31,.cls-32{mix-blend-mode:color-dodge;}.cls-31{fill:url(#Degradado_sin_nombre_29);}.cls-32{fill:url(#Degradado_sin_nombre_29-2);}</style><linearGradient id="linear-gradient" x1="3.28" y1="9.56" x2="84.79" y2="9.56" gradientUnits="userSpaceOnUse"><stop offset="0" stop-color="#0071bc" stop-opacity="0.2"/><stop offset="0.12" stop-color="#5b89a7" stop-opacity="0.4"/><stop offset="0.13" stop-color="#6993af" stop-opacity="0.43"/><stop offset="0.17" stop-color="#91b0c4" stop-opacity="0.5"/><stop offset="0.21" stop-color="#b3c9d6" stop-opacity="0.56"/><stop offset="0.25" stop-color="#cfdde5" stop-opacity="0.61"/><stop offset="0.3" stop-color="#e5ecf1" stop-opacity="0.65"/><stop offset="0.36" stop-color="#f4f7f9" stop-opacity="0.68"/><stop offset="0.43" stop-color="#fcfdfe" stop-opacity="0.7"/><stop offset="0.58" stop-color="#fff" stop-opacity="0.7"/><stop offset="0.81" stop-color="#fafafa" stop-opacity="0.71"/><stop offset="0.89" stop-color="#e9e9e9" stop-opacity="0.74"/><stop offset="0.95" stop-color="#ccc" stop-opacity="0.8"/><stop offset="0.99" stop-color="#a2a2a2" stop-opacity="0.88"/><stop offset="1" stop-color="#999" stop-opacity="0.9"/></linearGradient><linearGradient id="linear-gradient-2" x1="79.69" y1="9.56" x2="89.94" y2="9.56" gradientUnits="userSpaceOnUse"><stop offset="0.01" stop-color="#999"/><stop offset="1" stop-color="#ccc"/></linearGradient><linearGradient id="linear-gradient-3" x1="83.64" y1="9.56" x2="93.89" y2="9.56" xlink:href="#linear-gradient-2"/><linearGradient id="linear-gradient-4" x1="87.6" y1="9.56" x2="97.85" y2="9.56" xlink:href="#linear-gradient-2"/><linearGradient id="linear-gradient-5" x1="91.55" y1="9.56" x2="101.8" y2="9.56" xlink:href="#linear-gradient-2"/><linearGradient id="linear-gradient-6" x1="95.5" y1="9.56" x2="105.75" y2="9.56" xlink:href="#linear-gradient-2"/><linearGradient id="linear-gradient-7" x1="99.45" y1="9.56" x2="109.7" y2="9.56" xlink:href="#linear-gradient-2"/><linearGradient id="linear-gradient-8" x1="103.4" y1="9.56" x2="113.65" y2="9.56" xlink:href="#linear-gradient-2"/><linearGradient id="linear-gradient-9" x1="107.35" y1="9.56" x2="117.6" y2="9.56" xlink:href="#linear-gradient-2"/><linearGradient id="linear-gradient-10" x1="111.3" y1="9.56" x2="121.55" y2="9.56" xlink:href="#linear-gradient-2"/><linearGradient id="linear-gradient-11" x1="115.25" y1="9.56" x2="125.5" y2="9.56" xlink:href="#linear-gradient-2"/><linearGradient id="linear-gradient-12" x1="119.2" y1="9.56" x2="129.45" y2="9.56" xlink:href="#linear-gradient-2"/><linearGradient id="linear-gradient-13" x1="123.15" y1="9.56" x2="133.4" y2="9.56" xlink:href="#linear-gradient-2"/><linearGradient id="linear-gradient-14" x1="127.1" y1="9.56" x2="137.36" y2="9.56" xlink:href="#linear-gradient-2"/><linearGradient id="linear-gradient-15" x1="131.06" y1="9.56" x2="141.31" y2="9.56" xlink:href="#linear-gradient-2"/><linearGradient id="linear-gradient-16" x1="135.01" y1="9.56" x2="145.26" y2="9.56" xlink:href="#linear-gradient-2"/><linearGradient id="linear-gradient-17" x1="138.96" y1="9.56" x2="149.21" y2="9.56" xlink:href="#linear-gradient-2"/><linearGradient id="linear-gradient-18" x1="142.91" y1="9.56" x2="153.16" y2="9.56" xlink:href="#linear-gradient-2"/><linearGradient id="linear-gradient-19" x1="146.86" y1="9.56" x2="157.11" y2="9.56" xlink:href="#linear-gradient-2"/><linearGradient id="linear-gradient-20" x1="150.81" y1="9.56" x2="161.06" y2="9.56" xlink:href="#linear-gradient-2"/><linearGradient id="linear-gradient-21" x1="154.76" y1="9.56" x2="165.01" y2="9.56" xlink:href="#linear-gradient-2"/><linearGradient id="linear-gradient-22" x1="158.71" y1="9.56" x2="168.96" y2="9.56" xlink:href="#linear-gradient-2"/><linearGradient id="linear-gradient-23" x1="162.66" y1="9.56" x2="172.91" y2="9.56" xlink:href="#linear-gradient-2"/><linearGradient id="linear-gradient-24" x1="166.61" y1="9.56" x2="176.86" y2="9.56" xlink:href="#linear-gradient-2"/><linearGradient id="linear-gradient-25" x1="170.57" y1="11.55" x2="177.64" y2="11.55" xlink:href="#linear-gradient-2"/><linearGradient id="linear-gradient-26" x1="174.52" y1="14.04" x2="177.64" y2="14.04" xlink:href="#linear-gradient-2"/><linearGradient id="linear-gradient-27" x1="3.05" y1="9.56" x2="177.69" y2="9.56" xlink:href="#linear-gradient-2"/><radialGradient id="Degradado_sin_nombre_29" cx="4847.5" cy="-4512.29" r="44.27" gradientTransform="matrix(0.11, 0, 0, 0.08, -467.03, 350.17)" gradientUnits="userSpaceOnUse"><stop offset="0" stop-color="#cacaca"/><stop offset="0.03" stop-color="#bcbcbc"/><stop offset="0.16" stop-color="#8a8a8a"/><stop offset="0.3" stop-color="#606060"/><stop offset="0.43" stop-color="#3d3d3d"/><stop offset="0.57" stop-color="#222"/><stop offset="0.71" stop-color="#0f0f0f"/><stop offset="0.85" stop-color="#040404"/><stop offset="1"/></radialGradient><radialGradient id="Degradado_sin_nombre_29-2" cx="4135.31" cy="-4395.04" r="44.27" gradientTransform="matrix(0.11, 0, 0, 0.08, -466.57, 353.9)" xlink:href="#Degradado_sin_nombre_29"/></defs><title>progress bar</title><g class="cls-1"><g id="Layer_2" data-name="Layer 2"><g id="SideBar"><g class="cls-2"><path class="cls-3" d="M178.47,19.11H2.28A2.28,2.28,0,0,1,0,16.8V2.31A2.28,2.28,0,0,1,2.28,0H178.47a2.29,2.29,0,0,1,2.27,2.31V16.8A2.29,2.29,0,0,1,178.47,19.11ZM2.73,18.66H178a2.29,2.29,0,0,0,2.27-2.31V2.76A2.29,2.29,0,0,0,178,.45H2.73A2.3,2.3,0,0,0,.45,2.76V16.35A2.3,2.3,0,0,0,2.73,18.66Z"/><path class="cls-4" d="M75.88,15.79H4.9a1.63,1.63,0,0,1-1.62-1.65V5A1.63,1.63,0,0,1,4.9,3.32H83.17A1.65,1.65,0,0,1,84.43,6l-7.28,9.17A1.63,1.63,0,0,1,75.88,15.79Z"/><polygon class="cls-5" points="80.04 15.93 79.69 15.64 89.59 3.18 89.94 3.46 80.04 15.93"/><polygon class="cls-6" points="83.99 15.93 83.64 15.64 93.55 3.18 93.89 3.46 83.99 15.93"/><polygon class="cls-7" points="87.94 15.93 87.59 15.64 97.5 3.18 97.84 3.46 87.94 15.93"/><polygon class="cls-8" points="91.89 15.93 91.55 15.64 101.45 3.18 101.8 3.46 91.89 15.93"/><polygon class="cls-9" points="95.85 15.93 95.5 15.64 105.4 3.18 105.75 3.46 95.85 15.93"/><polygon class="cls-10" points="99.8 15.93 99.45 15.64 109.35 3.18 109.7 3.46 99.8 15.93"/><polygon class="cls-11" points="103.75 15.93 103.4 15.64 113.3 3.18 113.65 3.46 103.75 15.93"/><polygon class="cls-12" points="107.7 15.93 107.35 15.64 117.25 3.18 117.6 3.46 107.7 15.93"/><polygon class="cls-13" points="111.65 15.93 111.3 15.64 121.2 3.18 121.55 3.46 111.65 15.93"/><polygon class="cls-14" points="115.6 15.93 115.25 15.64 125.15 3.18 125.5 3.46 115.6 15.93"/><polygon class="cls-15" points="119.55 15.93 119.2 15.64 129.1 3.18 129.45 3.46 119.55 15.93"/><polygon class="cls-16" points="123.5 15.93 123.15 15.64 133.06 3.18 133.4 3.46 123.5 15.93"/><polygon class="cls-17" points="127.45 15.93 127.11 15.64 137.01 3.18 137.35 3.46 127.45 15.93"/><polygon class="cls-18" points="131.4 15.93 131.06 15.64 140.96 3.18 141.31 3.46 131.4 15.93"/><polygon class="cls-19" points="135.35 15.93 135.01 15.64 144.91 3.18 145.26 3.46 135.35 15.93"/><polygon class="cls-20" points="139.31 15.93 138.96 15.64 148.86 3.18 149.21 3.46 139.31 15.93"/><polygon class="cls-21" points="143.26 15.93 142.91 15.64 152.81 3.18 153.16 3.46 143.26 15.93"/><polygon class="cls-22" points="147.21 15.93 146.86 15.64 156.76 3.18 157.11 3.46 147.21 15.93"/><polygon class="cls-23" points="151.16 15.93 150.81 15.64 160.71 3.18 161.06 3.46 151.16 15.93"/><polygon class="cls-24" points="155.11 15.93 154.76 15.64 164.66 3.18 165.01 3.46 155.11 15.93"/><polygon class="cls-25" points="159.06 15.93 158.71 15.64 168.61 3.18 168.96 3.46 159.06 15.93"/><polygon class="cls-26" points="163.01 15.93 162.66 15.64 172.56 3.18 172.91 3.46 163.01 15.93"/><polygon class="cls-27" points="166.96 15.93 166.62 15.64 176.52 3.18 176.87 3.46 166.96 15.93"/><polygon class="cls-28" points="170.91 15.93 170.56 15.64 177.29 7.17 177.64 7.46 170.91 15.93"/><polygon class="cls-29" points="174.87 15.93 174.52 15.64 177.29 12.15 177.64 12.43 174.87 15.93"/><path class="cls-30" d="M176.4,16H3.82a.77.77,0,0,1-.77-.78V3.91a.81.81,0,0,1,.8-.82H176.49a1.21,1.21,0,0,1,1.2,1.22v10.4A1.3,1.3,0,0,1,176.4,16ZM4.49,15.56H176.4a.84.84,0,0,0,.84-.85V4.22a.66.66,0,0,0-.65-.67H4.41a.92.92,0,0,0-.91.93V14.55A1,1,0,0,0,4.49,15.56Z"/><ellipse class="cls-31" cx="83.79" cy="4.45" rx="4.91" ry="3.49" transform="translate(-0.12 3.95) rotate(-2.7)"/><ellipse class="cls-32" cx="4.91" cy="15.95" rx="4.91" ry="3.49" transform="translate(-0.75 0.25) rotate(-2.7)"/></g></g></g></g></svg>