<svg xmlns="http://www.w3.org/2000/svg" xmlns:xlink="http://www.w3.org/1999/xlink" viewBox="0 0 58.39 809.9"><defs><style>.cls-1{stroke-miterlimit:10;fill:url(#linear-gradient);stroke:url(#linear-gradient-2);}</style><linearGradient id="linear-gradient" x1="0.5" y1="404.95" x2="57.89" y2="404.95" gradientUnits="userSpaceOnUse"><stop offset="0" stop-color="#0071bc" stop-opacity="0.35"/><stop offset="0.27" stop-color="#5688a8" stop-opacity="0.23"/><stop offset="0.33" stop-color="#6e8ea3" stop-opacity="0.2"/><stop offset="1" stop-color="#999" stop-opacity="0.3"/></linearGradient><linearGradient id="linear-gradient-2" y1="404.95" x2="58.39" y2="404.95" gradientUnits="userSpaceOnUse"><stop offset="0" stop-color="#b3b3b3" stop-opacity="0.4"/><stop offset="0.88" stop-color="#f2f2f2" stop-opacity="0.3"/></linearGradient></defs><title>Slide bar</title><g id="Layer_2" data-name="Layer 2"><g id="SideBar"><path class="cls-1" d="M57.89,3.88V805.41c0,1.5-1.62,4.51-3.07,3.92l-16-6.56c-3.17-1.3-5.23-6.26-5.23-9.54V723.49a3.27,3.27,0,0,0-1-2.39L2.71,692.85A7,7,0,0,1,.5,687.8V630.33A7.36,7.36,0,0,1,2.83,625l27.33-25.9a3.24,3.24,0,0,0,1-2.37V19.09a9.55,9.55,0,0,1,3-6.95L51.8,1.5C54.05-.63,57.89.88,57.89,3.88Z"/></g></g></svg>