<svg xmlns="http://www.w3.org/2000/svg" xmlns:xlink="http://www.w3.org/1999/xlink" viewBox="0 0 737.68 327.74"><defs><style>.a0c48ed1-6e1f-43c7-9427-d45a10d47d3c,.a5aeb1a7-5d8a-4fa0-b175-4cf77385f252,.a676c4ea-8a18-4667-bfdf-fe412a7c04ec,.aac507aa-e2ca-4b77-ab69-d80c9becfee4,.acb05952-7e04-47f1-bca0-2b36770291a3,.aef54bf9-7466-4e55-8057-0563a8f8fb1d,.b5c98e16-0c23-4d19-85a8-43b746029111,.b63b9abe-efe9-45b1-9ecc-91545d77876e,.ba0afb95-3ddf-439f-a3f5-edc60f116216,.bf02fc6f-58de-47f2-8cde-eb3060051524{stroke-miterlimit:10;fill-rule:evenodd;opacity:0.8;}.bf02fc6f-58de-47f2-8cde-eb3060051524{fill:url(#a2d02b31-0c91-4663-8937-7107065ffcbf);stroke:url(#ab873f4e-e80f-40a8-b023-9a9c564774db);}.b5c98e16-0c23-4d19-85a8-43b746029111{fill:url(#e9e9f6c6-37b2-4e08-be98-34822b5c24d9);stroke:url(#e38a129d-4c1c-4a2e-9e03-a9f25eece0ec);}.a5aeb1a7-5d8a-4fa0-b175-4cf77385f252{fill:url(#a6359607-2e3c-4b06-b89f-1eb378e0edb2);stroke:url(#ab0f68ac-47a2-4603-a7ae-d37a2dbb5887);}.aef54bf9-7466-4e55-8057-0563a8f8fb1d{fill:url(#aaeeccaa-a510-4d2a-a354-4bbb6fb93373);stroke:url(#a1bbbd0a-af08-4334-9940-09a0c9c4408d);}.a676c4ea-8a18-4667-bfdf-fe412a7c04ec{fill:url(#ac0f789d-fb6c-418d-9932-1486c7778a80);stroke:url(#bcfc6ac2-ad46-41e0-993d-6e138f389d4d);}.ba0afb95-3ddf-439f-a3f5-edc60f116216{fill:url(#bec2105a-e5cf-4881-80d0-f5e73eddbb61);stroke:url(#abaa2147-e064-4b1c-983e-262c3c864929);}.acb05952-7e04-47f1-bca0-2b36770291a3{fill:url(#e34da267-377e-42e8-a78e-14c20c7dbea3);stroke:url(#a4ef2251-b443-47ee-93da-944bb7d926c5);}.a0c48ed1-6e1f-43c7-9427-d45a10d47d3c{fill:url(#bcbbdd5b-fcbb-4aa1-a65c-e9d38e90354d);stroke:url(#b9f26346-f6c2-43ae-82de-2b213dcd1a64);}.b63b9abe-efe9-45b1-9ecc-91545d77876e{fill:url(#a1906803-ce2f-4c94-b715-9f6e59875351);stroke:url(#f6857a8a-e883-4ea4-8246-aa6f3d91fdd1);}.aac507aa-e2ca-4b77-ab69-d80c9becfee4{fill:url(#e322a426-07a9-409c-ba76-d8937c03b59e);stroke:url(#e43ed90c-3a73-48d7-bbcd-979c384951a3);}</style><linearGradient id="a2d02b31-0c91-4663-8937-7107065ffcbf" x1="620.6" y1="221.95" x2="361.4" y2="-37.26" gradientUnits="userSpaceOnUse"><stop offset="0" stop-color="#00202c" stop-opacity="0.3"/><stop offset="0.26" stop-color="#002e45" stop-opacity="0.32"/><stop offset="0.71" stop-color="#005488" stop-opacity="0.36"/><stop offset="1" stop-color="#0071bc" stop-opacity="0.4"/></linearGradient><linearGradient id="ab873f4e-e80f-40a8-b023-9a9c564774db" x1="245.53" y1="92.35" x2="736.47" y2="92.35" gradientUnits="userSpaceOnUse"><stop offset="0.12" stop-color="#e6e6e6" stop-opacity="0.3"/><stop offset="0.17" stop-color="#e7e7e7" stop-opacity="0.32"/><stop offset="0.23" stop-color="#e9e9e9" stop-opacity="0.37"/><stop offset="0.29" stop-color="#ececec" stop-opacity="0.47"/><stop offset="0.36" stop-color="#f0f0f0" stop-opacity="0.59"/><stop offset="0.43" stop-color="#f6f6f6" stop-opacity="0.76"/><stop offset="0.5" stop-color="#fdfdfd" stop-opacity="0.95"/><stop offset="0.52" stop-color="#fff"/><stop offset="0.53" stop-color="#fdfdfd" stop-opacity="0.94"/><stop offset="0.56" stop-color="#fafafa" stop-opacity="0.82"/><stop offset="0.59" stop-color="#f8f8f8" stop-opacity="0.72"/><stop offset="0.63" stop-color="#f6f6f6" stop-opacity="0.64"/><stop offset="0.67" stop-color="#f4f4f4" stop-opacity="0.58"/><stop offset="0.72" stop-color="#f3f3f3" stop-opacity="0.53"/><stop offset="0.8" stop-color="#f2f2f2" stop-opacity="0.51"/><stop offset="1" stop-color="#f2f2f2" stop-opacity="0.5"/></linearGradient><linearGradient id="e9e9f6c6-37b2-4e08-be98-34822b5c24d9" x1="0.5" y1="92.35" x2="252.7" y2="92.35" gradientUnits="userSpaceOnUse"><stop offset="0" stop-color="#0071bc" stop-opacity="0.2"/><stop offset="0.46" stop-color="#4182ad" stop-opacity="0.29"/><stop offset="1" stop-color="#999" stop-opacity="0.4"/></linearGradient><linearGradient id="e38a129d-4c1c-4a2e-9e03-a9f25eece0ec" y1="92.35" x2="252.7" y2="92.35" gradientUnits="userSpaceOnUse"><stop offset="0" stop-color="#999" stop-opacity="0.3"/><stop offset="0.51" stop-color="#fff"/><stop offset="0.77" stop-color="#d7d7d7" stop-opacity="0.62"/><stop offset="1" stop-color="#b3b3b3" stop-opacity="0.5"/></linearGradient><linearGradient id="a6359607-2e3c-4b06-b89f-1eb378e0edb2" x1="621.81" y1="294.6" x2="362.61" y2="35.39" xlink:href="#a2d02b31-0c91-4663-8937-7107065ffcbf"/><linearGradient id="ab0f68ac-47a2-4603-a7ae-d37a2dbb5887" x1="246.74" y1="165" x2="737.68" y2="165" xlink:href="#ab873f4e-e80f-40a8-b023-9a9c564774db"/><linearGradient id="aaeeccaa-a510-4d2a-a354-4bbb6fb93373" x1="1.71" y1="165" x2="253.9" y2="165" xlink:href="#e9e9f6c6-37b2-4e08-be98-34822b5c24d9"/><linearGradient id="a1bbbd0a-af08-4334-9940-09a0c9c4408d" x1="1.21" y1="165" x2="253.9" y2="165" xlink:href="#e38a129d-4c1c-4a2e-9e03-a9f25eece0ec"/><linearGradient id="ac0f789d-fb6c-418d-9932-1486c7778a80" x1="621.81" y1="366.79" x2="362.61" y2="107.59" xlink:href="#a2d02b31-0c91-4663-8937-7107065ffcbf"/><linearGradient id="bcfc6ac2-ad46-41e0-993d-6e138f389d4d" x1="246.74" y1="237.19" x2="737.68" y2="237.19" xlink:href="#ab873f4e-e80f-40a8-b023-9a9c564774db"/><linearGradient id="bec2105a-e5cf-4881-80d0-f5e73eddbb61" x1="1.71" y1="237.19" x2="253.9" y2="237.19" xlink:href="#e9e9f6c6-37b2-4e08-be98-34822b5c24d9"/><linearGradient id="abaa2147-e064-4b1c-983e-262c3c864929" x1="1.21" y1="237.19" x2="253.9" y2="237.19" xlink:href="#e38a129d-4c1c-4a2e-9e03-a9f25eece0ec"/><linearGradient id="e34da267-377e-42e8-a78e-14c20c7dbea3" y1="18.87" x2="252.7" y2="18.87" xlink:href="#e9e9f6c6-37b2-4e08-be98-34822b5c24d9"/><linearGradient id="a4ef2251-b443-47ee-93da-944bb7d926c5" y1="18.87" x2="252.7" y2="18.87" xlink:href="#e38a129d-4c1c-4a2e-9e03-a9f25eece0ec"/><linearGradient id="bcbbdd5b-fcbb-4aa1-a65c-e9d38e90354d" x1="620.6" y1="148.15" x2="361.4" y2="-111.06" xlink:href="#a2d02b31-0c91-4663-8937-7107065ffcbf"/><linearGradient id="b9f26346-f6c2-43ae-82de-2b213dcd1a64" x1="245.53" y1="18.55" x2="736.47" y2="18.55" xlink:href="#ab873f4e-e80f-40a8-b023-9a9c564774db"/><linearGradient id="a1906803-ce2f-4c94-b715-9f6e59875351" x1="621.81" y1="438.79" x2="362.61" y2="179.59" xlink:href="#a2d02b31-0c91-4663-8937-7107065ffcbf"/><linearGradient id="f6857a8a-e883-4ea4-8246-aa6f3d91fdd1" x1="246.74" y1="309.19" x2="737.68" y2="309.19" xlink:href="#ab873f4e-e80f-40a8-b023-9a9c564774db"/><linearGradient id="e322a426-07a9-409c-ba76-d8937c03b59e" x1="1.71" y1="309.19" x2="253.9" y2="309.19" xlink:href="#e9e9f6c6-37b2-4e08-be98-34822b5c24d9"/><linearGradient id="e43ed90c-3a73-48d7-bbcd-979c384951a3" x1="1.21" y1="309.19" x2="253.9" y2="309.19" xlink:href="#e38a129d-4c1c-4a2e-9e03-a9f25eece0ec"/></defs><title>Asset 601</title><g id="a922da11-12db-4fb1-bf31-ecba411f2a66" data-name="Layer 2"><g id="aa484353-e7be-414a-836f-867f9ee1d855" data-name="Portfolio"><path class="bf02fc6f-58de-47f2-8cde-eb3060051524" d="M736,80.65V104a6.51,6.51,0,0,1-6.66,6.35H252.7A6.51,6.51,0,0,1,246,104V80.65a6.51,6.51,0,0,1,6.67-6.35H729.31A6.51,6.51,0,0,1,736,80.65Z"/><path class="b5c98e16-0c23-4d19-85a8-43b746029111" d="M252.7,110.39H7.16A6.51,6.51,0,0,1,.5,104V80.65A6.51,6.51,0,0,1,7.16,74.3H252.7A6.51,6.51,0,0,0,246,80.65V104A6.51,6.51,0,0,0,252.7,110.39Z"/><path class="a5aeb1a7-5d8a-4fa0-b175-4cf77385f252" d="M737.18,153.3v23.4a6.52,6.52,0,0,1-6.66,6.35H253.9a6.51,6.51,0,0,1-6.66-6.35V153.3A6.51,6.51,0,0,1,253.9,147H730.52A6.51,6.51,0,0,1,737.18,153.3Z"/><path class="aef54bf9-7466-4e55-8057-0563a8f8fb1d" d="M253.9,183.05H8.37a6.51,6.51,0,0,1-6.66-6.35V153.3A6.51,6.51,0,0,1,8.37,147H253.9a6.51,6.51,0,0,0-6.66,6.35v23.4A6.51,6.51,0,0,0,253.9,183.05Z"/><path class="a676c4ea-8a18-4667-bfdf-fe412a7c04ec" d="M737.18,225.49v23.4a6.52,6.52,0,0,1-6.66,6.35H253.9a6.51,6.51,0,0,1-6.66-6.35v-23.4a6.51,6.51,0,0,1,6.66-6.35H730.52A6.51,6.51,0,0,1,737.18,225.49Z"/><path class="ba0afb95-3ddf-439f-a3f5-edc60f116216" d="M253.9,255.24H8.37a6.51,6.51,0,0,1-6.66-6.35v-23.4a6.51,6.51,0,0,1,6.66-6.35H253.9a6.51,6.51,0,0,0-6.66,6.35v23.4A6.51,6.51,0,0,0,253.9,255.24Z"/><path class="acb05952-7e04-47f1-bca0-2b36770291a3" d="M252.7,36.92H7.16A6.51,6.51,0,0,1,.5,30.57V7.17A6.51,6.51,0,0,1,7.16.82H252.7A6.51,6.51,0,0,0,246,7.17v23.4A6.52,6.52,0,0,0,252.7,36.92Z"/><path class="a0c48ed1-6e1f-43c7-9427-d45a10d47d3c" d="M736,6.85v23.4a6.52,6.52,0,0,1-6.66,6.35H252.7A6.52,6.52,0,0,1,246,30.25V6.85A6.51,6.51,0,0,1,252.7.5H729.31A6.51,6.51,0,0,1,736,6.85Z"/><path class="b63b9abe-efe9-45b1-9ecc-91545d77876e" d="M737.18,297.49v23.4a6.52,6.52,0,0,1-6.66,6.35H253.9a6.51,6.51,0,0,1-6.66-6.35v-23.4a6.51,6.51,0,0,1,6.66-6.35H730.52A6.51,6.51,0,0,1,737.18,297.49Z"/><path class="aac507aa-e2ca-4b77-ab69-d80c9becfee4" d="M253.9,327.24H8.37a6.51,6.51,0,0,1-6.66-6.35v-23.4a6.51,6.51,0,0,1,6.66-6.35H253.9a6.51,6.51,0,0,0-6.66,6.35v23.4A6.51,6.51,0,0,0,253.9,327.24Z"/></g></g></svg>