<svg xmlns="http://www.w3.org/2000/svg" viewBox="0 0 46.67 52.69"><defs><style>.cls-1{opacity:0.65;}.cls-2{fill:#fff;opacity:0.8;}</style></defs><title>analyze icon</title><g id="Layer_2" data-name="Layer 2"><g id="Side_Buttons" data-name="Side Buttons"><g class="cls-1"><path class="cls-2" d="M4.73,5.22h8.56a.83.83,0,0,1,.77.88h0a.83.83,0,0,1-.78.88H4.73A.85.85,0,0,1,4,6.1H4A.83.83,0,0,1,4.73,5.22Z"/><path class="cls-2" d="M4.73,8.73h8.55a.84.84,0,0,1,.78.88h0a.83.83,0,0,1-.78.88H4.72A.83.83,0,0,1,4,9.61H4A.83.83,0,0,1,4.73,8.73Z"/><path class="cls-2" d="M4.72,12.24h5.45a.84.84,0,0,1,.77.88h0a.83.83,0,0,1-.78.88H4.72a.83.83,0,0,1-.78-.88h0A.84.84,0,0,1,4.72,12.24Z"/><path class="cls-2" d="M4.72,15.76h5.44a.84.84,0,0,1,.78.88h0a.83.83,0,0,1-.78.88H4.71a.82.82,0,0,1-.77-.88h0A.83.83,0,0,1,4.72,15.76Z"/><path class="cls-2" d="M.78,50.87l45.11.06a.84.84,0,0,1,.78.88h0a.83.83,0,0,1-.78.88L.78,52.63A.84.84,0,0,1,0,51.75H0A.83.83,0,0,1,.78,50.87Z"/><path class="cls-2" d="M40.16,7.18l.65-2.09A.75.75,0,0,1,42.24,5L43.7,8.3a.74.74,0,0,0,1,.39.92.92,0,0,0,.35-1.17L42,.49a.74.74,0,0,0-1-.4h0L34.72,3.6a.93.93,0,0,0-.35,1.17.73.73,0,0,0,1,.4l2.8-1.57c.62-.35,1.31.33,1.08,1.08l-.6,1.91c-5.35,17.1-18.94,29.17-34.87,31a.85.85,0,0,0-.69,1h0a.8.8,0,0,0,.85.8c16.53-1.94,30.63-14.46,36.18-32.2Z"/><path class="cls-2" d="M4.68,42.1a1.66,1.66,0,0,0-1.56,1.75v3.51a1.66,1.66,0,0,0,1.55,1.76H8.56a1.67,1.67,0,0,0,1.56-1.76V43.86A1.66,1.66,0,0,0,8.57,42.1Zm3.1,5.27H5.45a.84.84,0,0,1-.78-.88V44.73a.84.84,0,0,1,.78-.88H7.79a.83.83,0,0,1,.78.88v1.75A.83.83,0,0,1,7.78,47.37Z"/><path class="cls-2" d="M13.24,39.47a1.67,1.67,0,0,0-1.56,1.76v6.14a1.67,1.67,0,0,0,1.56,1.76h3.89a1.66,1.66,0,0,0,1.55-1.76V41.24a1.66,1.66,0,0,0-1.55-1.76Zm3.1,7.91H14a.84.84,0,0,1-.78-.88V42.11a.83.83,0,0,1,.78-.88h2.33a.85.85,0,0,1,.78.88V46.5A.83.83,0,0,1,16.34,47.38Z"/><path class="cls-2" d="M21.8,35.1a1.66,1.66,0,0,0-1.56,1.75V47.39a1.65,1.65,0,0,0,1.55,1.75h3.89a1.66,1.66,0,0,0,1.56-1.75V36.86a1.66,1.66,0,0,0-1.55-1.76Zm3.1,12.29H22.56a.82.82,0,0,1-.77-.88V37.73a.83.83,0,0,1,.78-.88h2.33a.83.83,0,0,1,.78.88v8.78A.84.84,0,0,1,24.9,47.39Z"/><path class="cls-2" d="M30.37,29a1.67,1.67,0,0,0-1.56,1.76l0,16.68a1.66,1.66,0,0,0,1.55,1.76h3.89a1.66,1.66,0,0,0,1.56-1.75l0-16.69A1.66,1.66,0,0,0,34.26,29ZM33.45,47.4H31.12a.83.83,0,0,1-.78-.88l0-14.92a.83.83,0,0,1,.78-.88h2.34a.84.84,0,0,1,.77.88l0,14.93A.83.83,0,0,1,33.45,47.4Z"/><path class="cls-2" d="M38.94,16.68a1.66,1.66,0,0,0-1.56,1.75l0,29a1.67,1.67,0,0,0,1.56,1.76h3.88a1.66,1.66,0,0,0,1.56-1.75l0-29a1.65,1.65,0,0,0-1.55-1.75ZM42,47.42H39.68a.83.83,0,0,1-.78-.88l0-27.22a.83.83,0,0,1,.77-.87h2.34a.82.82,0,0,1,.77.88l0,27.22A.84.84,0,0,1,42,47.42Z"/></g></g></g></svg>