<svg xmlns="http://www.w3.org/2000/svg" viewBox="0 0 45.91 51.44"><defs><style>.cls-1{fill:#fff;opacity:0.46;}</style></defs><title>search icon</title><g id="Layer_2" data-name="Layer 2"><g id="Side_Buttons" data-name="Side Buttons"><path class="cls-1" d="M44.27,12.86H36.08v-11A1.75,1.75,0,0,0,34.44,0H1.64A1.74,1.74,0,0,0,0,1.84V44.09c0,4.06,2.94,7.35,6.56,7.35H39.35c3.63,0,6.56-3.29,6.56-7.35V14.7A1.74,1.74,0,0,0,44.27,12.86ZM7,3.07H29.08a4,4,0,0,1,3.68,4.26,4,4,0,0,1-3.68,4.25H7A4,4,0,0,1,3.32,7.33,4,4,0,0,1,7,3.07ZM30.24,17.34H5.83a1.86,1.86,0,0,1-2-1.62,1.86,1.86,0,0,1,2-1.61H30.24a1.86,1.86,0,0,1,2,1.61A1.87,1.87,0,0,1,30.24,17.34Zm0,6.18H5.83a1.86,1.86,0,0,1-2-1.61,1.86,1.86,0,0,1,2-1.61H30.24a1.86,1.86,0,0,1,2,1.61A1.86,1.86,0,0,1,30.24,23.52Zm0,6.26H5.83a1.86,1.86,0,0,1-2-1.61,1.86,1.86,0,0,1,2-1.61H30.24a1.86,1.86,0,0,1,2,1.61A1.86,1.86,0,0,1,30.24,29.78Zm0,6.26H5.83a1.86,1.86,0,0,1-2-1.61,1.86,1.86,0,0,1,2-1.61H30.24a1.86,1.86,0,0,1,2,1.61A1.86,1.86,0,0,1,30.24,36Zm0,6.26H5.83a1.86,1.86,0,0,1-2-1.61,1.86,1.86,0,0,1,2-1.62H30.24a1.87,1.87,0,0,1,2,1.62A1.86,1.86,0,0,1,30.24,42.3Zm0,6.25H5.83a1.86,1.86,0,0,1-2-1.61,1.86,1.86,0,0,1,2-1.61H30.24a1.86,1.86,0,0,1,2,1.61A1.86,1.86,0,0,1,30.24,48.55Zm14.05-4.69c0,2.09-2,3.79-4.41,3.79s-4.42-1.7-4.42-3.79V15.41h8.83Z"/></g></g></svg>