<svg xmlns="http://www.w3.org/2000/svg" xmlns:xlink="http://www.w3.org/1999/xlink" viewBox="0 0 746.63 77.5"><defs><style>.aa1cb8fa-dfae-4740-870a-bafdda44a953,.ade4b13d-4b9a-4676-8d7d-6c9bcdd7e298,.af0c5905-130b-4845-a10a-d0e36a867cad{stroke-miterlimit:10;}.aa1cb8fa-dfae-4740-870a-bafdda44a953,.af0c5905-130b-4845-a10a-d0e36a867cad{opacity:0.5;}.af0c5905-130b-4845-a10a-d0e36a867cad{fill:url(#a40b4b3d-8f94-4ea7-a9ea-f4d2ace8a856);stroke:url(#a6d5f76b-e365-493f-8d97-a05d12a17503);}.ade4b13d-4b9a-4676-8d7d-6c9bcdd7e298{fill:url(#a3ac61e8-e034-4962-b72a-0b2f93f7fa38);stroke:url(#a89ae64c-2315-4421-9bd6-2a8976c86242);}.aa1cb8fa-dfae-4740-870a-bafdda44a953{fill:url(#e5254f80-544d-4997-a74b-9996cea6b774);stroke:url(#fb5b1d8b-6981-4556-b1db-6d705e0a004c);}</style><linearGradient id="a40b4b3d-8f94-4ea7-a9ea-f4d2ace8a856" x1="0.5" y1="38.75" x2="203.76" y2="38.75" gradientUnits="userSpaceOnUse"><stop offset="0" stop-color="#0071bc" stop-opacity="0.2"/><stop offset="0.46" stop-color="#4182ad" stop-opacity="0.29"/><stop offset="1" stop-color="#999" stop-opacity="0.4"/></linearGradient><linearGradient id="a6d5f76b-e365-493f-8d97-a05d12a17503" y1="38.75" x2="204.26" y2="38.75" gradientUnits="userSpaceOnUse"><stop offset="0.12" stop-color="#e6e6e6" stop-opacity="0.3"/><stop offset="0.17" stop-color="#e7e7e7" stop-opacity="0.32"/><stop offset="0.23" stop-color="#e9e9e9" stop-opacity="0.37"/><stop offset="0.29" stop-color="#ececec" stop-opacity="0.47"/><stop offset="0.36" stop-color="#f0f0f0" stop-opacity="0.59"/><stop offset="0.43" stop-color="#f6f6f6" stop-opacity="0.76"/><stop offset="0.5" stop-color="#fdfdfd" stop-opacity="0.95"/><stop offset="0.52" stop-color="#fff"/><stop offset="0.53" stop-color="#fdfdfd" stop-opacity="0.94"/><stop offset="0.56" stop-color="#fafafa" stop-opacity="0.82"/><stop offset="0.59" stop-color="#f8f8f8" stop-opacity="0.72"/><stop offset="0.63" stop-color="#f6f6f6" stop-opacity="0.64"/><stop offset="0.67" stop-color="#f4f4f4" stop-opacity="0.58"/><stop offset="0.72" stop-color="#f3f3f3" stop-opacity="0.53"/><stop offset="0.8" stop-color="#f2f2f2" stop-opacity="0.51"/><stop offset="1" stop-color="#f2f2f2" stop-opacity="0.5"/></linearGradient><linearGradient id="a3ac61e8-e034-4962-b72a-0b2f93f7fa38" x1="271.87" x2="475.13" xlink:href="#a40b4b3d-8f94-4ea7-a9ea-f4d2ace8a856"/><linearGradient id="a89ae64c-2315-4421-9bd6-2a8976c86242" x1="271.37" x2="475.63" xlink:href="#a6d5f76b-e365-493f-8d97-a05d12a17503"/><linearGradient id="e5254f80-544d-4997-a74b-9996cea6b774" x1="542.87" x2="746.13" xlink:href="#a40b4b3d-8f94-4ea7-a9ea-f4d2ace8a856"/><linearGradient id="fb5b1d8b-6981-4556-b1db-6d705e0a004c" x1="542.37" x2="746.63" xlink:href="#a6d5f76b-e365-493f-8d97-a05d12a17503"/></defs><title>Asset 600</title><g id="b115ae10-bdbf-4dc0-b481-959a32682f69" data-name="Layer 2"><g id="a330ce18-69e5-48b2-aa8f-29a769c1ea92" data-name="Portfolio"><path class="af0c5905-130b-4845-a10a-d0e36a867cad" d="M203.76,10.5V66.68A10.32,10.32,0,0,1,193.44,77H10.82A10.32,10.32,0,0,1,.5,66.68V10.82A10.32,10.32,0,0,1,10.82.5H193.76A10,10,0,0,1,203.76,10.5Z"/><path class="ade4b13d-4b9a-4676-8d7d-6c9bcdd7e298" d="M475.13,10.5V66.68A10.32,10.32,0,0,1,464.81,77H282.19a10.32,10.32,0,0,1-10.32-10.32V10.82A10.32,10.32,0,0,1,282.19.5H465.13A10,10,0,0,1,475.13,10.5Z"/><path class="aa1cb8fa-dfae-4740-870a-bafdda44a953" d="M746.13,10.5V66.68A10.32,10.32,0,0,1,735.81,77H553.19a10.32,10.32,0,0,1-10.32-10.32V10.82A10.32,10.32,0,0,1,553.19.5H736.13A10,10,0,0,1,746.13,10.5Z"/></g></g></svg>