<svg xmlns="http://www.w3.org/2000/svg" xmlns:xlink="http://www.w3.org/1999/xlink" viewBox="0 0 249.51 784.33"><defs><style>.cls-1{stroke-miterlimit:10;fill:url(#linear-gradient);stroke:url(#linear-gradient-2);}</style><linearGradient id="linear-gradient" x1="-100.07" y1="618.99" x2="379.82" y2="139.11" gradientUnits="userSpaceOnUse"><stop offset="0" stop-color="#0071bc" stop-opacity="0.35"/><stop offset="0.27" stop-color="#5688a8" stop-opacity="0.23"/><stop offset="0.33" stop-color="#6e8ea3" stop-opacity="0.2"/><stop offset="1" stop-color="#999" stop-opacity="0.3"/></linearGradient><linearGradient id="linear-gradient-2" y1="392.17" x2="249.51" y2="392.17" gradientUnits="userSpaceOnUse"><stop offset="0" stop-color="#b3b3b3" stop-opacity="0.4"/><stop offset="0.88" stop-color="#f2f2f2" stop-opacity="0.3"/></linearGradient></defs><title>right side bar</title><g id="Layer_2" data-name="Layer 2"><g id="SideBar"><path class="cls-1" d="M215.44,610.43S249,575.57,249,575V14.38C249,6.72,243.28.5,236.21.5H15.82C7.37.5.51,7.93.51,17.1V60a4.56,4.56,0,0,0,4.37,4.73h190A4.2,4.2,0,0,1,198,66.13L225.48,96a4.92,4.92,0,0,1,1.28,3.34l-.19,84.64a4,4,0,0,1-1,2.68l-24.59,27a3.94,3.94,0,0,1-2.93,1.3c-36.38.07-95.76-.45-105.22-.54a4.87,4.87,0,0,0-2.42.62L67.61,227.71a4.86,4.86,0,0,1-2.38.62H28.56a13.91,13.91,0,0,1-14-12.78A13.65,13.65,0,0,1,28.14,201H184.7a4.23,4.23,0,0,0,3.09-1.38l17.78-19.28a4.94,4.94,0,0,0,1.28-3.35v-75.6a4.93,4.93,0,0,0-1.28-3.34L187.79,78.81a4.2,4.2,0,0,0-3.09-1.39H11C5.2,77.42.51,82.5.51,88.76V315.81C.51,327.53,9.28,337,20.09,337H207.56c13.5,0,19.44,5.86,19.44,20.49v38.06a4.56,4.56,0,0,1-4.36,4.73H15.07A14.57,14.57,0,0,0,.5,414.9V705.65a27.9,27.9,0,0,0,7.22,18.89l26.65,28.89a13.66,13.66,0,0,0,10,4.51H178.1a4.07,4.07,0,0,1,2,.52l43.75,24.16a9.54,9.54,0,0,0,4.65,1.21h11.77c4.84,0,8.76-4.25,8.76-9.5V727.86c0-1-27.85-29.52-29.13-30.83l-.09-.1a22,22,0,0,1-5.63-14.81V613.77A4.93,4.93,0,0,1,215.44,610.43ZM16,115.17a7.9,7.9,0,0,1,7.89-7.9H109.8V169.8H23.89A7.89,7.89,0,0,1,16,161.91ZM225,321a4.05,4.05,0,0,1-4.21,3.87H28.46c-8,0-14.46-5.94-14.46-13.27v-66.3a4.05,4.05,0,0,1,4.21-3.87H74a4.49,4.49,0,0,0,2.27-.61l16.42-11.42a16,16,0,0,1,8.7-2.53H216.79c4.51,0,8.16,3.35,8.16,7.48Zm-6.4-267.63H30.45A13,13,0,0,1,17.5,40.38V25.28a13,13,0,0,1,13-12.95h188.1a13,13,0,0,1,12.95,13v15.1A13,13,0,0,1,218.55,53.33ZM16.5,427.17a4.84,4.84,0,0,1,4.84-4.84H221.66a4.84,4.84,0,0,1,4.84,4.84v97.32a4.84,4.84,0,0,1-4.84,4.84H21.34a4.84,4.84,0,0,1-4.84-4.84Zm176.44,268.6,6.83,8.83A16.15,16.15,0,0,1,204.5,716V729.7a3.64,3.64,0,0,1-3.63,3.63H45.14a8.8,8.8,0,0,1-6.22-2.58L23.34,712.17a19.94,19.94,0,0,1-5.84-14.1V559.82A10.49,10.49,0,0,1,28,549.33H218.57a4.93,4.93,0,0,1,4.93,4.93V566.8c-.38.9-.71,1.71-1.08,2.61l-31.84,33.84a4.27,4.27,0,0,0-1.08,2.61v81.61A11.75,11.75,0,0,0,192.94,695.77Z"/></g></g></svg>