<svg xmlns="http://www.w3.org/2000/svg" viewBox="0 0 46.49 49.68"><defs><style>.cls-1{opacity:0.65;}.cls-2{opacity:0.8;}.cls-3{fill:#fff;}</style></defs><title>fetch icon</title><g id="Layer_2" data-name="Layer 2"><g id="Side_Buttons" data-name="Side Buttons"><g class="cls-1"><g class="cls-2"><path class="cls-3" d="M46.33,3.38a.7.7,0,0,0-.48-.26L35.54,2.2,35.35.64A.69.69,0,0,0,34.57,0L25,1.27l-.12,0L11.75.07A.71.71,0,0,0,11,.73l-.2,2.41L.61,4.48A.73.73,0,0,0,0,5.3L5.2,48.65a2.78,2.78,0,0,0,.06.58.71.71,0,0,0,.65.45H40.14a.72.72,0,0,0,.7-.73V48l1.35.12a.7.7,0,0,0,.75-.66L46.49,3.91A.78.78,0,0,0,46.33,3.38ZM34.41,4.52H11.5l22.56-3ZM12.32,1.59l6.11.54L12.21,3ZM1.48,5.84l3.73-.49V37ZM41.61,46.59l-.77-.07V25.15a.7.7,0,1,0-1.4,0V48.21H6.6V6H39.44V21.74a.7.7,0,1,0,1.4,0V5.25a.72.72,0,0,0-.7-.73H35.82l-.1-.84L45,4.52Z"/><path class="cls-3" d="M36.42,8.42H32.7a.67.67,0,0,0-.58.33l-1.58,2.48a10,10,0,0,0-6-2,.72.72,0,0,0-.7.73V20.08a.72.72,0,0,0,.7.73h9.68a.71.71,0,0,0,.69-.73,11.07,11.07,0,0,0-3.26-7.91l1.45-2.28h3.35a.74.74,0,0,0,0-1.47Zm-3,10.93H25.21V10.69a8.67,8.67,0,0,1,4.55,1.76l-.62,1a.76.76,0,0,0,.13,1,.68.68,0,0,0,1-.15l.53-.84A9.57,9.57,0,0,1,33.46,19.35Z"/><path class="cls-3" d="M36.42,32.61H30.11L29,30.74a11.05,11.05,0,0,0,2.92-7.54.72.72,0,0,0-.7-.73h-9V13.05a.72.72,0,0,0-.7-.73A10.65,10.65,0,0,0,11.16,23.2,10.65,10.65,0,0,0,21.53,34.07a10,10,0,0,0,6.41-2.33l1.19,2a.7.7,0,0,0,.59.34h6.7a.73.73,0,0,0,0-1.46Zm-14.89,0a9.2,9.2,0,0,1-9-9.41,9.26,9.26,0,0,1,8.28-9.39V23.2a.71.71,0,0,0,.69.73h9a9.58,9.58,0,0,1-2.25,5.53l-1.64-2.75a.67.67,0,0,0-1-.23.74.74,0,0,0-.22,1l1.79,3A8.66,8.66,0,0,1,21.53,32.61Z"/><path class="cls-3" d="M9.63,38h5.95a.73.73,0,0,0,0-1.46H9.63a.73.73,0,0,0,0,1.46Z"/><path class="cls-3" d="M24.51,36.51h-6a.73.73,0,0,0,0,1.46h6a.73.73,0,0,0,0-1.46Z"/><path class="cls-3" d="M9.63,41.87H19.3a.73.73,0,0,0,0-1.46H9.63a.73.73,0,0,0,0,1.46Z"/><path class="cls-3" d="M24.51,40.41H22.28a.73.73,0,0,0,0,1.46h2.23a.73.73,0,0,0,0-1.46Z"/><path class="cls-3" d="M12.6,44.31h-3a.74.74,0,0,0,0,1.47h3a.74.74,0,0,0,0-1.47Z"/><path class="cls-3" d="M24.51,44.31H15.58a.74.74,0,0,0,0,1.47h8.93a.74.74,0,0,0,0-1.47Z"/></g></g></g></g></svg>