<svg xmlns="http://www.w3.org/2000/svg" xmlns:xlink="http://www.w3.org/1999/xlink" viewBox="0 0 82.99 81.08"><defs><style>.cls-1{isolation:isolate;}.cls-2{stroke-miterlimit:10;stroke-width:0.5px;fill:url(#linear-gradient);stroke:url(#linear-gradient-2);}.cls-12,.cls-3,.cls-4{mix-blend-mode:color-dodge;}.cls-3{fill:url(#radial-gradient);}.cls-4{fill:url(#radial-gradient-2);}.cls-5{fill:#29abe2;}.cls-6{fill:url(#linear-gradient-3);}.cls-7{fill:url(#linear-gradient-4);}.cls-8{fill:url(#linear-gradient-5);}.cls-9{fill:url(#linear-gradient-6);}.cls-10{fill:url(#linear-gradient-7);}.cls-11{fill:url(#linear-gradient-8);}.cls-12{fill:url(#radial-gradient-3);}</style><linearGradient id="linear-gradient" x1="40.63" y1="2.86" x2="40.63" y2="80.3" gradientUnits="userSpaceOnUse"><stop offset="0" stop-color="#f2f2f2" stop-opacity="0.2"/><stop offset="0.68" stop-color="#539dcf" stop-opacity="0.2"/><stop offset="1" stop-color="#0071bc" stop-opacity="0.2"/></linearGradient><linearGradient id="linear-gradient-2" y1="41.58" x2="81.27" y2="41.58" gradientUnits="userSpaceOnUse"><stop offset="0.16" stop-color="#dfdfdf" stop-opacity="0.7"/><stop offset="0.53" stop-color="#939393" stop-opacity="0.7"/><stop offset="0.96" stop-color="#fff" stop-opacity="0.7"/></linearGradient><radialGradient id="radial-gradient" cx="-1307.79" cy="2598.79" r="54.52" gradientTransform="matrix(0.07, 0, 0, 0.01, 167.1, 46.97)" gradientUnits="userSpaceOnUse"><stop offset="0" stop-color="#fff"/><stop offset="0.06" stop-color="#e9e9e9" stop-opacity="0.92"/><stop offset="0.26" stop-color="#a3a3a3" stop-opacity="0.68"/><stop offset="0.45" stop-color="#696969" stop-opacity="0.47"/><stop offset="0.63" stop-color="#3c3c3c" stop-opacity="0.31"/><stop offset="0.78" stop-color="#1b1b1b" stop-opacity="0.2"/><stop offset="0.91" stop-color="#070707" stop-opacity="0.13"/><stop offset="1" stop-opacity="0.1"/></radialGradient><radialGradient id="radial-gradient-2" cx="-1843.64" cy="3053.38" r="54.52" gradientTransform="matrix(0, -0.09, 0.01, 0, 56.23, -167.39)" xlink:href="#radial-gradient"/><linearGradient id="linear-gradient-3" x1="39.11" y1="41.42" x2="39.44" y2="41.42" gradientUnits="userSpaceOnUse"><stop offset="0.01" stop-color="#999"/><stop offset="1" stop-color="#ccc"/></linearGradient><linearGradient id="linear-gradient-4" x1="7.46" y1="41.42" x2="71.09" y2="41.42" xlink:href="#linear-gradient-3"/><linearGradient id="linear-gradient-5" x1="3.62" y1="13.81" x2="17.33" y2="13.81" xlink:href="#linear-gradient-3"/><linearGradient id="linear-gradient-6" x1="61.22" y1="13.81" x2="74.93" y2="13.81" xlink:href="#linear-gradient-3"/><linearGradient id="linear-gradient-7" x1="3.62" y1="69.03" x2="17.33" y2="69.03" xlink:href="#linear-gradient-3"/><linearGradient id="linear-gradient-8" x1="61.22" y1="69.03" x2="74.93" y2="69.03" xlink:href="#linear-gradient-3"/><radialGradient id="radial-gradient-3" cx="-1911.4" cy="-338.2" r="54.52" gradientTransform="matrix(0.04, 0, 0, 0.01, 120.73, 46.08)" xlink:href="#radial-gradient"/></defs><title>target mark</title><g class="cls-1"><g id="Layer_2" data-name="Layer 2"><g id="SideBar"><rect class="cls-2" x="0.25" y="2.86" width="80.77" height="77.44"/><ellipse class="cls-3" cx="79.33" cy="80.38" rx="3.66" ry="0.7" transform="translate(-0.61 0.6) rotate(-0.43)"/><ellipse class="cls-4" cx="80.8" cy="5.1" rx="0.44" ry="5.1" transform="translate(-0.13 2.78) rotate(-1.97)"/><path class="cls-5" d="M39.28,64.79C25.84,64.79,14.9,54.3,14.9,41.42S25.84,18.05,39.28,18.05,63.65,28.54,63.65,41.42,52.71,64.79,39.28,64.79Zm0-46.43c-13.27,0-24,10.35-24,23.06S26,64.48,39.28,64.48s24-10.35,24-23.06S52.54,18.36,39.28,18.36Z"/><path class="cls-5" d="M39.28,57.34c-9.16,0-16.61-7.14-16.61-15.92S30.12,25.5,39.28,25.5s16.6,7.14,16.6,15.92S48.43,57.34,39.28,57.34Zm0-31.53c-9,0-16.28,7-16.28,15.61S30.3,57,39.28,57s16.27-7,16.27-15.61S48.25,25.81,39.28,25.81Z"/><rect class="cls-6" x="39.11" y="10.91" width="0.32" height="61.02"/><rect class="cls-7" x="7.46" y="41.27" width="63.64" height="0.31"/><polygon class="cls-8" points="3.94 20.38 3.62 20.38 3.62 7.23 17.33 7.23 17.33 7.54 3.94 7.54 3.94 20.38"/><polygon class="cls-9" points="74.93 20.38 74.61 20.38 74.61 7.54 61.22 7.54 61.22 7.23 74.93 7.23 74.93 20.38"/><polygon class="cls-10" points="17.33 75.61 3.62 75.61 3.62 62.46 3.94 62.46 3.94 75.3 17.33 75.3 17.33 75.61"/><polygon class="cls-11" points="74.93 75.61 61.22 75.61 61.22 75.3 74.61 75.3 74.61 62.46 74.93 62.46 74.93 75.61"/><ellipse class="cls-12" cx="38.96" cy="41.46" rx="2.33" ry="0.75" transform="translate(-0.31 0.29) rotate(-0.43)"/></g></g></g></svg>