<?xml version="1.0" encoding="UTF-8" standalone="no"?>
<svg
   xmlns:dc="http://purl.org/dc/elements/1.1/"
   xmlns:cc="http://creativecommons.org/ns#"
   xmlns:rdf="http://www.w3.org/1999/02/22-rdf-syntax-ns#"
   xmlns:svg="http://www.w3.org/2000/svg"
   xmlns="http://www.w3.org/2000/svg"
   xmlns:xlink="http://www.w3.org/1999/xlink"
   height="344.5"
   width="295"
   id="svg70"
   version="1.1"
   viewBox="0 0 325 340">
  <metadata
     id="metadata74">
    <rdf:RDF>
      <cc:Work
         rdf:about="">
        <dc:format>image/svg+xml</dc:format>
        <dc:type
           rdf:resource="http://purl.org/dc/dcmitype/StillImage" />
      </cc:Work>
    </rdf:RDF>
  </metadata>
  <defs
     id="defs48">
    <style
       id="style2">.cls-1,.cls-2,.cls-3,.cls-4,.cls-5,.cls-6,.cls-7,.cls-8{stroke-miterlimit:10;}.cls-1{opacity:0.75;fill:url(#linear-gradient);stroke:url(#linear-gradient-2);}.cls-2,.cls-4,.cls-7{opacity:0.4;}.cls-2{fill:url(#linear-gradient-3);stroke:url(#linear-gradient-4);}.cls-3,.cls-6,.cls-8{opacity:0.6;}.cls-3{fill:url(#linear-gradient-5);stroke:url(#linear-gradient-6);}.cls-4{fill:url(#linear-gradient-7);stroke:url(#linear-gradient-8);}.cls-5{opacity:0.8;fill:url(#linear-gradient-9);stroke:url(#linear-gradient-10);}.cls-6{fill:url(#linear-gradient-11);stroke:url(#linear-gradient-12);}.cls-7{fill:url(#linear-gradient-13);stroke:url(#linear-gradient-14);}.cls-8{fill:url(#linear-gradient-15);stroke:url(#linear-gradient-16);}</style>
    <linearGradient
       gradientUnits="userSpaceOnUse"
       y2="17.25"
       x2="124.23"
       y1="17.25"
       x1="0.5"
       id="linear-gradient">
      <stop
         id="stop4"
         stop-opacity="0.35"
         stop-color="#0071bc"
         offset="0" />
      <stop
         id="stop6"
         stop-opacity="0.33"
         stop-color="#4590c1"
         offset="0.1" />
      <stop
         id="stop8"
         stop-opacity="0.32"
         stop-color="#81abc6"
         offset="0.23" />
      <stop
         id="stop10"
         stop-opacity="0.31"
         stop-color="#acbeca"
         offset="0.38" />
      <stop
         id="stop12"
         stop-opacity="0.3"
         stop-color="#c5c9cb"
         offset="0.57" />
      <stop
         id="stop14"
         stop-opacity="0.3"
         stop-color="#ccc"
         offset="1" />
    </linearGradient>
    <linearGradient
       gradientUnits="userSpaceOnUse"
       y2="17.25"
       x2="124.23"
       y1="17.25"
       id="linear-gradient-2">
      <stop
         id="stop17"
         stop-opacity="0.4"
         stop-color="#b3b3b3"
         offset="0" />
      <stop
         id="stop19"
         stop-opacity="0.3"
         stop-color="#f2f2f2"
         offset="0.88" />
    </linearGradient>
    <linearGradient
       gradientUnits="userSpaceOnUse"
       y2="189"
       x2="294.5"
       y1="189"
       x1="244.55"
       id="linear-gradient-3">
      <stop
         id="stop22"
         stop-opacity="0.2"
         stop-color="#0071bc"
         offset="0" />
      <stop
         id="stop24"
         stop-opacity="0.29"
         stop-color="#4182ad"
         offset="0.46" />
      <stop
         id="stop26"
         stop-opacity="0.4"
         stop-color="#999"
         offset="1" />
    </linearGradient>
    <linearGradient
       gradientUnits="userSpaceOnUse"
       y2="189"
       x2="295"
       y1="189"
       x1="244.55"
       id="linear-gradient-4">
      <stop
         id="stop29"
         stop-opacity="0.3"
         stop-color="#e6e6e6"
         offset="0.12" />
      <stop
         id="stop31"
         stop-opacity="0.4"
         stop-color="#939393"
         offset="0.52" />
      <stop
         id="stop33"
         stop-opacity="0.5"
         stop-color="#f2f2f2"
         offset="1" />
    </linearGradient>
    <linearGradient
       xlink:href="#linear-gradient-3"
       y2="189.5"
       x2="26"
       y1="189.5"
       x1="12"
       id="linear-gradient-5" />
    <linearGradient
       xlink:href="#linear-gradient-4"
       y2="189.5"
       x2="26.5"
       y1="189.5"
       x1="11.5"
       id="linear-gradient-6" />
    <linearGradient
       xlink:href="#linear-gradient-3"
       y2="190"
       x2="40"
       y1="190"
       x1="26"
       id="linear-gradient-7" />
    <linearGradient
       xlink:href="#linear-gradient-4"
       y2="190"
       x2="40.5"
       y1="190"
       x1="25.5"
       id="linear-gradient-8" />
    <linearGradient
       xlink:href="#linear-gradient-3"
       x2="266.5"
       x1="0.5"
       id="linear-gradient-9" />
    <linearGradient
       xlink:href="#linear-gradient-4"
       x2="267"
       x1="0"
       id="linear-gradient-10" />
    <linearGradient
       xlink:href="#linear-gradient-3"
       x2="280.5"
       x1="230.55"
       id="linear-gradient-11" />
    <linearGradient
       xlink:href="#linear-gradient-4"
       x2="281"
       x1="230.55"
       id="linear-gradient-12" />
    <linearGradient
       xlink:href="#linear-gradient-3"
       y2="17.25"
       x2="152.23"
       y1="17.25"
       x1="99.269997"
       id="linear-gradient-13" />
    <linearGradient
       xlink:href="#linear-gradient-4"
       y2="17.25"
       x2="152.23"
       y1="17.25"
       x1="99.269997"
       id="linear-gradient-14" />
    <linearGradient
       xlink:href="#linear-gradient-3"
       y2="17.25"
       x2="138.23"
       y1="17.25"
       x1="85.269997"
       id="linear-gradient-15" />
    <linearGradient
       xlink:href="#linear-gradient-4"
       y2="17.25"
       x2="138.23"
       y1="17.25"
       x1="85.269997"
       id="linear-gradient-16" />
    <linearGradient
       y2="189"
       x2="294.5"
       y1="189"
       x1="244.55"
       gradientUnits="userSpaceOnUse"
       id="linearGradient76"
       xlink:href="#linear-gradient-3" />
    <linearGradient
       y2="189"
       x2="295"
       y1="189"
       x1="244.55"
       gradientUnits="userSpaceOnUse"
       id="linearGradient78"
       xlink:href="#linear-gradient-4" />
  </defs>
  <title
     id="title50">left notification panel</title>
  <g
     transform="translate(0,1.5233573e-6)"
     data-name="Layer 2"
     id="Layer_2">
    <g
       id="SideBar">
      <path
         style="opacity:0.75;fill:url(#linear-gradient);stroke:url(#linear-gradient-2);stroke-miterlimit:10"
         id="path52"
         d="M 124.23,34 H 0.5 V 7.09 A 6.59,6.59 0 0 1 7.09,0.5 h 78.18 a 6.58,6.58 0 0 1 4.66,1.93 l 29.64,29.64 a 6.58,6.58 0 0 0 4.66,1.93 z"
         class="cls-1" />
      <path
         style="opacity:0.4;fill:url(#linearGradient76);stroke:url(#linearGradient78);stroke-miterlimit:10"
         id="path54"
         d="m 294.5,47 v 257.49 a 6.63,6.63 0 0 1 -1.67,4.39 l -29.36,32.92 a 6.59,6.59 0 0 1 -4.92,2.2 h -14 a 6.59,6.59 0 0 0 4.92,-2.2 l 29.36,-32.92 a 6.63,6.63 0 0 0 1.67,-4.39 V 47 a 13,13 0 0 0 -13,-13 h 14 a 13,13 0 0 1 13,13 z"
         class="cls-2" />
      <rect
         style="opacity:0.6;fill:url(#linear-gradient-5);stroke:url(#linear-gradient-6);stroke-miterlimit:10"
         id="rect56"
         height="249"
         width="14"
         y="65"
         x="12"
         class="cls-3" />
      <rect
         style="opacity:0.4;fill:url(#linear-gradient-7);stroke:url(#linear-gradient-8);stroke-miterlimit:10"
         id="rect58"
         height="249"
         width="14"
         y="65.5"
         x="26"
         class="cls-4" />
      <path
         style="opacity:0.8;fill:url(#linear-gradient-9);stroke:url(#linear-gradient-10);stroke-miterlimit:10"
         id="path60"
         d="M 253.52,34 H 0.5 V 337.41 A 6.59,6.59 0 0 0 7.09,344 h 223.46 a 6.59,6.59 0 0 0 4.92,-2.2 l 29.36,-32.92 a 6.63,6.63 0 0 0 1.67,-4.39 V 47 A 13,13 0 0 0 253.52,34 Z m -21,240.27 a 6.58,6.58 0 0 1 -1.93,4.66 l -33.14,33.14 A 6.58,6.58 0 0 1 192.79,314 H 12 V 65 h 213.91 a 6.59,6.59 0 0 1 6.59,6.59 z"
         class="cls-5" />
      <path
         style="opacity:0.6;fill:url(#linear-gradient-11);stroke:url(#linear-gradient-12);stroke-miterlimit:10"
         id="path62"
         d="m 280.5,47 v 257.49 a 6.63,6.63 0 0 1 -1.67,4.39 l -29.36,32.92 a 6.59,6.59 0 0 1 -4.92,2.2 h -14 a 6.59,6.59 0 0 0 4.92,-2.2 l 29.36,-32.92 a 6.63,6.63 0 0 0 1.67,-4.39 V 47 a 13,13 0 0 0 -13,-13 h 14 a 13,13 0 0 1 13,13 z"
         class="cls-6" />
      <path
         style="opacity:0.4;fill:url(#linear-gradient-13);stroke:url(#linear-gradient-14);stroke-miterlimit:10"
         id="path64"
         d="m 152.23,34 h -14 a 6.58,6.58 0 0 1 -4.66,-1.93 L 103.93,2.43 A 6.58,6.58 0 0 0 99.27,0.5 h 14 a 6.58,6.58 0 0 1 4.66,1.93 l 29.64,29.64 a 6.58,6.58 0 0 0 4.66,1.93 z"
         class="cls-7" />
      <path
         style="opacity:0.6;fill:url(#linear-gradient-15);stroke:url(#linear-gradient-16);stroke-miterlimit:10"
         id="path66"
         d="m 138.23,34 h -14 a 6.58,6.58 0 0 1 -4.66,-1.93 L 89.93,2.43 A 6.58,6.58 0 0 0 85.27,0.5 h 14 a 6.58,6.58 0 0 1 4.66,1.93 l 29.64,29.64 a 6.58,6.58 0 0 0 4.66,1.93 z"
         class="cls-8" />
    </g>
  </g>
</svg>
