<svg xmlns="http://www.w3.org/2000/svg" xmlns:xlink="http://www.w3.org/1999/xlink" viewBox="0 0 48.26 45.81"><defs><style>.b8b97720-ebd9-40b9-bd42-18cb897b359d{fill:url(#fced6587-d4e1-46d2-a508-aa8fc9c8b017);}</style><radialGradient id="fced6587-d4e1-46d2-a508-aa8fc9c8b017" cx="116.68" cy="100.25" r="0.46" gradientTransform="translate(9.42 -8.77) scale(0.91 0.86)" gradientUnits="userSpaceOnUse"><stop offset="0.01" stop-color="#ccc"/><stop offset="1" stop-color="#fff"/></radialGradient></defs><title>Asset 495</title><g id="b593adf6-1fab-45db-8f58-6aa9332303db" data-name="Layer 2"><g id="fa68c013-c8d5-4be5-96c6-26b1b8348765" data-name="right SideBar"><path class="b8b97720-ebd9-40b9-bd42-18cb897b359d" d="M24.11,45.77C10.82,45.77,0,35.51,0,22.9S10.82,0,24.11,0,48.22,10.29,48.22,22.9,37.4,45.77,24.11,45.77Zm0-45.48C11,.29.27,10.43.27,22.9S11,45.51,24.11,45.51,48,35.37,48,22.9,37.25.29,24.11.29Z"/><path class="b8b97720-ebd9-40b9-bd42-18cb897b359d" d="M24.11,45.81,24,45.75C23.89,45.64,9.87,35.38,9.87,22.9S23.89.16,24,.06L24.11,0l.08.06c.14.1,14.16,10.36,14.16,22.84s-14,22.74-14.16,22.85Zm0-45.48c-1.16.86-14,10.72-14,22.57S23,44.62,24.11,45.48c1.16-.86,14-10.72,14-22.58S25.27,1.19,24.11.33Z"/><rect class="b8b97720-ebd9-40b9-bd42-18cb897b359d" x="0.14" y="22.77" width="48.12" height="0.26"/><path class="b8b97720-ebd9-40b9-bd42-18cb897b359d" d="M5.74,37.56l-.22-.17A24.31,24.31,0,0,1,24.11,29a24.27,24.27,0,0,1,18.58,8.44l-.21.16a24,24,0,0,0-18.37-8.34A24,24,0,0,0,5.74,37.56Z"/><path class="b8b97720-ebd9-40b9-bd42-18cb897b359d" d="M24.11,16.85A24.24,24.24,0,0,1,5.53,8.41l.21-.16a24,24,0,0,0,18.37,8.34A24,24,0,0,0,42.48,8.25l.21.16A24.24,24.24,0,0,1,24.11,16.85Z"/><rect class="b8b97720-ebd9-40b9-bd42-18cb897b359d" x="23.97" y="0.16" width="0.27" height="45.26"/></g></g></svg>