<svg xmlns="http://www.w3.org/2000/svg" xmlns:xlink="http://www.w3.org/1999/xlink" viewBox="0 0 1850.5 115.5"><defs><style>.a753c297-b1df-43a3-b1de-2e1d6f66a2d0{stroke-miterlimit:10;fill:url(#a6c054fb-28e7-4749-ab39-f28d272569e5);stroke:url(#bc212c73-186b-4399-abd9-ee562bbe4313);}</style><linearGradient id="a6c054fb-28e7-4749-ab39-f28d272569e5" x1="925.25" y1="115" x2="925.25" y2="0.5" gradientUnits="userSpaceOnUse"><stop offset="0" stop-color="#0071bc" stop-opacity="0.35"/><stop offset="0.27" stop-color="#5688a8" stop-opacity="0.23"/><stop offset="0.33" stop-color="#6e8ea3" stop-opacity="0.2"/><stop offset="1" stop-color="#999" stop-opacity="0.3"/></linearGradient><linearGradient id="bc212c73-186b-4399-abd9-ee562bbe4313" y1="57.75" x2="1850.5" y2="57.75" gradientUnits="userSpaceOnUse"><stop offset="0" stop-color="#b3b3b3" stop-opacity="0.4"/><stop offset="0.88" stop-color="#f2f2f2" stop-opacity="0.3"/></linearGradient></defs><title>Asset 415</title><g id="a43cabee-1e5a-4d35-a948-c30f85550d37" data-name="Layer 2"><g id="f81b1d76-ef5f-4b42-affc-a161e15dc46b" data-name="Footer"><path class="a753c297-b1df-43a3-b1de-2e1d6f66a2d0" d="M1839,115H11.49C-.68,115-3.81,95.87,7.56,90.93l52.36-22.8a31,31,0,0,1,12.42-2.61H213.05c9.94,0,19.47-4.48,26.51-12.45l37.69-42.74A27.9,27.9,0,0,1,298.17.5H1533.33a27.9,27.9,0,0,1,20.92,9.83l37.69,42.74c7,8,16.57,12.45,26.51,12.45h159.71a31,31,0,0,1,12.42,2.61l52.36,22.8C1854.31,95.87,1851.18,115,1839,115Z"/></g></g></svg>