<svg xmlns="http://www.w3.org/2000/svg" xmlns:xlink="http://www.w3.org/1999/xlink" viewBox="0 0 417.92 89.94"><defs><style>.b46ba4b7-d9a5-493d-a468-a8d3a4d11b25{isolation:isolate;}.bdcb539c-4531-4b58-8bbd-3c268d6cbcea{font-size:3.97px;fill:#fff;font-family:Lato-Regular, Lato;}.a384a40f-5ed9-454c-a2cd-4610c296369b,.a76fe0ce-cff3-4c6e-a041-e7ea7665bb2d,.bbb07422-7599-469f-8502-3ffa7180e884{fill:none;}.bbb07422-7599-469f-8502-3ffa7180e884{stroke:#8c88a2;}.a76fe0ce-cff3-4c6e-a041-e7ea7665bb2d,.bbb07422-7599-469f-8502-3ffa7180e884{stroke-miterlimit:10;stroke-width:0.25px;}.a76fe0ce-cff3-4c6e-a041-e7ea7665bb2d{stroke:gray;}.b8a55604-7cb8-4442-a2eb-38412b652305,.e75a849e-9fa4-4f45-b9c9-cbf6e1980ea3,.e7df6ae2-a8ce-41a8-aeba-96aec4449959,.fbb4d23d-adb3-4678-a3d2-a336125a40e8{mix-blend-mode:screen;}.b8a55604-7cb8-4442-a2eb-38412b652305{fill:url(#b24c8830-5f57-4505-927b-bb935ecb0aa4);}.a384a40f-5ed9-454c-a2cd-4610c296369b{stroke:#ccc;stroke-linecap:round;stroke-linejoin:round;}.e7df6ae2-a8ce-41a8-aeba-96aec4449959{fill:url(#bc00bc69-fd53-4429-93e1-724c25241edf);}.fbb4d23d-adb3-4678-a3d2-a336125a40e8{fill:url(#b4a5ee59-c69e-4bf1-b42c-6ed8ba457323);}.e75a849e-9fa4-4f45-b9c9-cbf6e1980ea3{fill:url(#aa4d706b-6362-48b1-b42b-75940e9f159d);}</style><linearGradient id="b24c8830-5f57-4505-927b-bb935ecb0aa4" x1="70.33" y1="73.94" x2="70.33" y2="27.42" gradientTransform="translate(-0.21 2.12) rotate(-0.3)" gradientUnits="userSpaceOnUse"><stop offset="0.08"/><stop offset="0.25" stop-color="#040404"/><stop offset="0.4" stop-color="#0e0e0e"/><stop offset="0.54" stop-color="#202020"/><stop offset="0.67" stop-color="#3a3a3a"/><stop offset="0.81" stop-color="#5b5b5b"/><stop offset="0.94" stop-color="#838383"/><stop offset="1" stop-color="#999"/></linearGradient><linearGradient id="bc00bc69-fd53-4429-93e1-724c25241edf" x1="19.47" y1="73.94" x2="19.47" y2="27.15" gradientTransform="matrix(-1, 0.01, 0.01, 1, 198.32, 1.09)" xlink:href="#b24c8830-5f57-4505-927b-bb935ecb0aa4"/><linearGradient id="b4a5ee59-c69e-4bf1-b42c-6ed8ba457323" x1="280.46" y1="73.94" x2="280.46" y2="27.15" xlink:href="#b24c8830-5f57-4505-927b-bb935ecb0aa4"/><linearGradient id="aa4d706b-6362-48b1-b42b-75940e9f159d" x1="-174.62" y1="73.94" x2="-174.62" y2="27.42" gradientTransform="matrix(-1, 0.01, 0.01, 1, 198.32, 1.09)" xlink:href="#b24c8830-5f57-4505-927b-bb935ecb0aa4"/></defs><title>Asset 412</title><g class="b46ba4b7-d9a5-493d-a468-a8d3a4d11b25"><g id="a61724eb-3860-416e-be38-70da9b770717" data-name="Layer 2"><g id="a43b3b11-4fe8-4d49-b5cd-d7d66048607d" data-name="Footer"><text class="bdcb539c-4531-4b58-8bbd-3c268d6cbcea" transform="translate(4.99 79.58) rotate(-0.3) scale(1.01 1)">0</text><text class="bdcb539c-4531-4b58-8bbd-3c268d6cbcea" transform="translate(26.64 89.22) rotate(-0.3) scale(1.01 1)">1</text><text class="bdcb539c-4531-4b58-8bbd-3c268d6cbcea" transform="translate(43.43 89.13) rotate(-0.3) scale(1.01 1)">2</text><text class="bdcb539c-4531-4b58-8bbd-3c268d6cbcea" transform="translate(60.23 89.04) rotate(-0.3) scale(1.01 1)">3</text><text class="bdcb539c-4531-4b58-8bbd-3c268d6cbcea" transform="translate(77.02 88.96) rotate(-0.3) scale(1.01 1)">4</text><text class="bdcb539c-4531-4b58-8bbd-3c268d6cbcea" transform="translate(93.81 88.87) rotate(-0.3) scale(1.01 1)">5</text><text class="bdcb539c-4531-4b58-8bbd-3c268d6cbcea" transform="translate(110.61 88.78) rotate(-0.3) scale(1.01 1)">6</text><text class="bdcb539c-4531-4b58-8bbd-3c268d6cbcea" transform="translate(127.4 88.69) rotate(-0.3) scale(1.01 1)">7</text><text class="bdcb539c-4531-4b58-8bbd-3c268d6cbcea" transform="translate(0.29 72.07) rotate(-0.3) scale(1.01 1)">100</text><text class="bdcb539c-4531-4b58-8bbd-3c268d6cbcea" transform="translate(0.25 64.53) rotate(-0.3) scale(1.01 1)">200</text><text class="bdcb539c-4531-4b58-8bbd-3c268d6cbcea" transform="translate(0.21 56.99) rotate(-0.3) scale(1.01 1)">300</text><text class="bdcb539c-4531-4b58-8bbd-3c268d6cbcea" transform="translate(0.18 49.45) rotate(-0.3) scale(1.01 1)">400</text><text class="bdcb539c-4531-4b58-8bbd-3c268d6cbcea" transform="translate(0.14 41.92) rotate(-0.3) scale(1.01 1)">500</text><text class="bdcb539c-4531-4b58-8bbd-3c268d6cbcea" transform="translate(0.1 34.38) rotate(-0.3) scale(1.01 1)">600</text><text class="bdcb539c-4531-4b58-8bbd-3c268d6cbcea" transform="translate(0.06 26.84) rotate(-0.3) scale(1.01 1)">700</text><text class="bdcb539c-4531-4b58-8bbd-3c268d6cbcea" transform="translate(0.02 19.3) rotate(-0.3) scale(1.01 1)">800</text><polyline class="bbb07422-7599-469f-8502-3ffa7180e884" points="10.71 0 11.13 80.12 415.38 78.01"/><line class="a76fe0ce-cff3-4c6e-a041-e7ea7665bb2d" x1="27.93" y1="82.54" x2="27.53" y2="5.94"/><line class="a76fe0ce-cff3-4c6e-a041-e7ea7665bb2d" x1="44.31" y1="5.85" x2="44.71" y2="82.46"/><line class="a76fe0ce-cff3-4c6e-a041-e7ea7665bb2d" x1="61.1" y1="5.76" x2="61.5" y2="82.37"/><line class="a76fe0ce-cff3-4c6e-a041-e7ea7665bb2d" x1="77.88" y1="5.67" x2="78.28" y2="82.28"/><line class="a76fe0ce-cff3-4c6e-a041-e7ea7665bb2d" x1="94.67" y1="5.59" x2="95.07" y2="82.19"/><line class="a76fe0ce-cff3-4c6e-a041-e7ea7665bb2d" x1="111.45" y1="5.5" x2="111.85" y2="82.1"/><line class="a76fe0ce-cff3-4c6e-a041-e7ea7665bb2d" x1="128.24" y1="5.41" x2="128.64" y2="82.02"/><polygon class="b8a55604-7cb8-4442-a2eb-38412b652305" points="128.91 75.39 11.32 76 11.1 34.65 30.8 52.35 50.33 39.04 69.95 44.1 89.47 29.07 109.17 47.35 129.58 57.29 128.91 75.39"/><polyline class="a384a40f-5ed9-454c-a2cd-4610c296369b" points="11.1 34.39 30.73 52.09 50.19 38.78 69.74 43.84 89.19 28.81 108.82 47.09 129.16 57.03"/><text class="bdcb539c-4531-4b58-8bbd-3c268d6cbcea" transform="translate(145.23 88.6) rotate(-0.3) scale(1.01 1)">8</text><text class="bdcb539c-4531-4b58-8bbd-3c268d6cbcea" transform="translate(162.02 88.51) rotate(-0.3) scale(1.01 1)">9</text><text class="bdcb539c-4531-4b58-8bbd-3c268d6cbcea" transform="translate(177.65 88.43) rotate(-0.3) scale(1.01 1)">10</text><text class="bdcb539c-4531-4b58-8bbd-3c268d6cbcea" transform="translate(194.44 88.34) rotate(-0.3) scale(1.01 1)">11</text><text class="bdcb539c-4531-4b58-8bbd-3c268d6cbcea" transform="translate(211.24 88.26) rotate(-0.3) scale(1.01 1)">12</text><text class="bdcb539c-4531-4b58-8bbd-3c268d6cbcea" transform="translate(228.03 88.17) rotate(-0.3) scale(1.01 1)">13</text><line class="a76fe0ce-cff3-4c6e-a041-e7ea7665bb2d" x1="230.12" y1="81.49" x2="229.72" y2="4.88"/><line class="a76fe0ce-cff3-4c6e-a041-e7ea7665bb2d" x1="212.93" y1="4.97" x2="213.33" y2="81.58"/><line class="a76fe0ce-cff3-4c6e-a041-e7ea7665bb2d" x1="196.15" y1="5.06" x2="196.55" y2="81.66"/><line class="a76fe0ce-cff3-4c6e-a041-e7ea7665bb2d" x1="179.36" y1="5.14" x2="179.76" y2="81.75"/><line class="a76fe0ce-cff3-4c6e-a041-e7ea7665bb2d" x1="162.58" y1="5.23" x2="162.98" y2="81.84"/><line class="a76fe0ce-cff3-4c6e-a041-e7ea7665bb2d" x1="145.79" y1="5.32" x2="146.19" y2="81.93"/><polygon class="e7df6ae2-a8ce-41a8-aeba-96aec4449959" points="128.38 75.39 230.08 74.6 229.87 33.24 213.18 51.14 196.32 38.02 179.56 43.27 162.7 28.43 146.01 46.89 128.62 57.03 128.38 75.39"/><polyline class="a384a40f-5ed9-454c-a2cd-4610c296369b" points="229.87 33.24 213.18 51.14 196.32 38.02 179.56 43.27 162.7 28.43 146.01 46.89 128.62 57.03"/><text class="bdcb539c-4531-4b58-8bbd-3c268d6cbcea" transform="translate(244.29 88.08) rotate(-0.3) scale(1.01 1)">14</text><text class="bdcb539c-4531-4b58-8bbd-3c268d6cbcea" transform="translate(261.08 88) rotate(-0.3) scale(1.01 1)">15</text><text class="bdcb539c-4531-4b58-8bbd-3c268d6cbcea" transform="translate(277.87 87.91) rotate(-0.3) scale(1.01 1)">16</text><text class="bdcb539c-4531-4b58-8bbd-3c268d6cbcea" transform="translate(294.67 87.82) rotate(-0.3) scale(1.01 1)">17</text><text class="bdcb539c-4531-4b58-8bbd-3c268d6cbcea" transform="translate(311.46 87.73) rotate(-0.3) scale(1.01 1)">18</text><text class="bdcb539c-4531-4b58-8bbd-3c268d6cbcea" transform="translate(328.25 87.65) rotate(-0.3) scale(1.01 1)">19</text><line class="a76fe0ce-cff3-4c6e-a041-e7ea7665bb2d" x1="229.95" y1="81.49" x2="229.55" y2="4.88"/><line class="a76fe0ce-cff3-4c6e-a041-e7ea7665bb2d" x1="246.33" y1="4.79" x2="246.73" y2="81.4"/><line class="a76fe0ce-cff3-4c6e-a041-e7ea7665bb2d" x1="263.12" y1="4.71" x2="263.52" y2="81.31"/><line class="a76fe0ce-cff3-4c6e-a041-e7ea7665bb2d" x1="279.9" y1="4.62" x2="280.3" y2="81.23"/><line class="a76fe0ce-cff3-4c6e-a041-e7ea7665bb2d" x1="296.69" y1="4.53" x2="297.09" y2="81.14"/><line class="a76fe0ce-cff3-4c6e-a041-e7ea7665bb2d" x1="313.47" y1="4.44" x2="313.87" y2="81.05"/><polygon class="fbb4d23d-adb3-4678-a3d2-a336125a40e8" points="331.34 74.33 229.91 74.6 229.69 33.25 246.57 50.96 263.29 37.66 280.1 42.75 296.81 27.73 313.69 46.02 331.25 56.33 331.34 74.33"/><text class="bdcb539c-4531-4b58-8bbd-3c268d6cbcea" transform="translate(346.08 87.55) rotate(-0.3) scale(1.01 1)">20</text><text class="bdcb539c-4531-4b58-8bbd-3c268d6cbcea" transform="translate(362.88 87.46) rotate(-0.3) scale(1.01 1)">21</text><text class="bdcb539c-4531-4b58-8bbd-3c268d6cbcea" transform="translate(379.67 87.38) rotate(-0.3) scale(1.01 1)">22</text><text class="bdcb539c-4531-4b58-8bbd-3c268d6cbcea" transform="translate(396.46 87.29) rotate(-0.3) scale(1.01 1)">23</text><text class="bdcb539c-4531-4b58-8bbd-3c268d6cbcea" transform="translate(413.26 87.2) rotate(-0.3) scale(1.01 1)">24</text><line class="a76fe0ce-cff3-4c6e-a041-e7ea7665bb2d" x1="414.95" y1="3.91" x2="415.35" y2="80.52"/><line class="a76fe0ce-cff3-4c6e-a041-e7ea7665bb2d" x1="398.17" y1="4" x2="398.57" y2="80.61"/><line class="a76fe0ce-cff3-4c6e-a041-e7ea7665bb2d" x1="381.38" y1="4.09" x2="381.78" y2="80.7"/><line class="a76fe0ce-cff3-4c6e-a041-e7ea7665bb2d" x1="364.6" y1="4.18" x2="365" y2="80.78"/><line class="a76fe0ce-cff3-4c6e-a041-e7ea7665bb2d" x1="347.81" y1="4.26" x2="348.21" y2="80.87"/><line class="a76fe0ce-cff3-4c6e-a041-e7ea7665bb2d" x1="331.03" y1="4.35" x2="331.43" y2="80.96"/><polygon class="e75a849e-9fa4-4f45-b9c9-cbf6e1980ea3" points="331.29 74.33 415.36 73.89 415.14 32.54 401.22 50.42 387.14 37.28 373.16 42.52 359.07 27.66 345.15 46.11 331.25 56.59 331.29 74.33"/><polyline class="a384a40f-5ed9-454c-a2cd-4610c296369b" points="415.14 32.28 401.22 50.16 387.14 37.02 373.15 42.26 359.06 27.4 345.15 45.85 331.71 55.83"/><polyline class="a384a40f-5ed9-454c-a2cd-4610c296369b" points="229.69 33.25 246.57 50.96 263.29 37.66 280.1 42.75 296.81 27.73 313.69 46.02 331.18 55.98"/></g></g></g></svg>