<svg xmlns="http://www.w3.org/2000/svg" xmlns:xlink="http://www.w3.org/1999/xlink" viewBox="0 0 180.74 19.44"><defs><style>.fb4d34e5-17c7-4bd0-b483-4e6f22ccfc0c{isolation:isolate;}.f1ce2208-2a76-465e-896d-8c6a0a669006{opacity:0.85;}.ecf26d74-7959-4338-8d71-e62c92e3cb71{fill:#e6e6e6;}.e3ceb80a-ce4b-43b0-9694-800dd5fed516{mix-blend-mode:screen;fill:url(#e4580f1f-e2d6-4593-971b-5ac277fd4567);}.b5ddfcb7-e8da-40d5-acfe-5f83468b2b0c{fill:url(#b153d85a-0277-4360-ae1d-59b7a7d5d9b8);}.e7d3ff04-6a25-4242-b46d-cdb98963c747{fill:url(#bb22c18b-291b-4e0e-8da8-90c269309393);}.fa373570-4d91-464e-b8d6-f1c58117e85d{fill:url(#ad206ae8-fb20-41ca-8652-c6d468c571df);}.ae96efa4-bc0b-4e2f-8c3f-fb58bac6f292{fill:url(#bdd1ed71-915d-43fd-86cf-7de2fefbc1f1);}.bcdae569-5061-4e8c-bec1-bd4d289b511c{fill:url(#af7482e1-fdc1-4110-8a89-6fa910f1930c);}.ba114230-3ddd-4fc0-8d5f-76fb650fec7c{fill:url(#f6887d11-a3bc-438d-9f81-0c524d553411);}.a534f1ea-341e-41e0-a31b-7496aa8e0442{fill:url(#fcff62b2-5c27-42f3-970b-1811b0a29645);}.e4779412-82c0-4f39-80f3-8c1ed424f189{fill:url(#bd28ead8-b645-427f-a9ba-b01045fb49de);}.a4165f05-e3a4-47a7-95a7-9a4fe5130405{fill:url(#a28da1c6-c568-4642-842f-fa44d455a91f);}.bfa63b0a-afbd-4a38-b8ee-1b49048bb364{fill:url(#ab9582e0-13ad-4f12-8b7d-e0a6fa6146e9);}.ecbbf204-7356-4f5c-9aea-a124ab9d113e{fill:url(#e858ac78-8458-45d3-8b60-bad04b073160);}.f7c8a9ff-48d0-404f-9925-a64bc34df3aa{fill:url(#f4028842-4fa9-482d-b92e-7906a8c4f09e);}.e65cbd36-8027-4329-8136-587fcdc21d23{fill:url(#a339cf1d-05a5-437c-af54-62293885a39c);}.a68c74b9-41b0-4b8c-9e0b-e4b287bdea04{fill:url(#a8c0b1d3-4419-4c42-b3d4-073c74d03535);}.bc1d5c57-9398-4de8-8641-d3013dc52e96{fill:url(#b43e4705-1d90-4755-a354-e71ce8704899);}.ae3b5a31-efd2-4b4c-8735-cf25d4f7a508{fill:url(#b8be5e34-7f34-4f73-9311-43db1724ecad);}.f23e7876-7b18-4cce-b662-c98315c67c32{fill:url(#e50054e4-e4dc-4369-844b-e406c7b2ab48);}.e9e9a90d-390e-4b86-a162-98018724a262{fill:url(#a91f304a-4317-4e16-baaf-b335b4325620);}.b396c56c-3773-47fc-8c11-9c120751c8b5{fill:url(#f388e7b6-45b3-4425-b651-ed4a90a593e8);}.fd412820-e30d-489d-96a0-5ba868b6e5e7{fill:url(#a7d1cf2a-3a47-47f7-b363-73fd05bb0556);}.b7033f9f-106c-4dab-bbcd-075a635733ea{fill:url(#faa2c345-d0f8-4e31-bc02-2d2578b613c5);}.e619cdb4-e3f3-461f-b0f7-16cb379de41d{fill:url(#a75a3b4f-5e14-47f3-bd39-97fc0cb7d06a);}.a7cb52de-996d-4f81-bab1-d35bc603a2c6{fill:url(#edd17b9b-4acf-4ac3-93d9-2090efdfa607);}.f4ef3b2f-8872-444a-9b3a-23b7814b191d{fill:url(#a3e37468-e684-4d70-8b6e-147cf3402331);}.aadb4e47-716b-4d0f-b896-90adde164c94{fill:url(#ead1350f-fc1b-4807-b3a4-92f6628fce4f);}.aa2790c5-fd41-4418-b2cc-94c0447cf5d5{fill:url(#b9c41d08-f3ea-4afe-b470-42aefcc16421);}.aa593dea-2291-45aa-8e00-11ab57339f8a,.e9f2caa4-6532-4b73-85bb-208d67cc1c27{mix-blend-mode:color-dodge;}.aa593dea-2291-45aa-8e00-11ab57339f8a{fill:url(#bbb6f2e3-e640-42c3-87fc-d64500aa6486);}.e9f2caa4-6532-4b73-85bb-208d67cc1c27{fill:url(#bc2ec3d8-8ff4-4a56-aa50-1549e5b89227);}</style><linearGradient id="e4580f1f-e2d6-4593-971b-5ac277fd4567" x1="3.28" y1="9.56" x2="84.79" y2="9.56" gradientUnits="userSpaceOnUse"><stop offset="0" stop-color="#0071bc" stop-opacity="0.2"/><stop offset="0.12" stop-color="#5b89a7" stop-opacity="0.4"/><stop offset="0.13" stop-color="#6993af" stop-opacity="0.43"/><stop offset="0.17" stop-color="#91b0c4" stop-opacity="0.5"/><stop offset="0.21" stop-color="#b3c9d6" stop-opacity="0.56"/><stop offset="0.25" stop-color="#cfdde5" stop-opacity="0.61"/><stop offset="0.3" stop-color="#e5ecf1" stop-opacity="0.65"/><stop offset="0.36" stop-color="#f4f7f9" stop-opacity="0.68"/><stop offset="0.43" stop-color="#fcfdfe" stop-opacity="0.7"/><stop offset="0.58" stop-color="#fff" stop-opacity="0.7"/><stop offset="0.81" stop-color="#fafafa" stop-opacity="0.71"/><stop offset="0.89" stop-color="#e9e9e9" stop-opacity="0.74"/><stop offset="0.95" stop-color="#ccc" stop-opacity="0.8"/><stop offset="0.99" stop-color="#a2a2a2" stop-opacity="0.88"/><stop offset="1" stop-color="#999" stop-opacity="0.9"/></linearGradient><linearGradient id="b153d85a-0277-4360-ae1d-59b7a7d5d9b8" x1="79.69" y1="9.56" x2="89.94" y2="9.56" gradientUnits="userSpaceOnUse"><stop offset="0.01" stop-color="#999"/><stop offset="1" stop-color="#ccc"/></linearGradient><linearGradient id="bb22c18b-291b-4e0e-8da8-90c269309393" x1="83.64" y1="9.56" x2="93.89" y2="9.56" xlink:href="#b153d85a-0277-4360-ae1d-59b7a7d5d9b8"/><linearGradient id="ad206ae8-fb20-41ca-8652-c6d468c571df" x1="87.6" y1="9.56" x2="97.85" y2="9.56" xlink:href="#b153d85a-0277-4360-ae1d-59b7a7d5d9b8"/><linearGradient id="bdd1ed71-915d-43fd-86cf-7de2fefbc1f1" x1="91.55" y1="9.56" x2="101.8" y2="9.56" xlink:href="#b153d85a-0277-4360-ae1d-59b7a7d5d9b8"/><linearGradient id="af7482e1-fdc1-4110-8a89-6fa910f1930c" x1="95.5" y1="9.56" x2="105.75" y2="9.56" xlink:href="#b153d85a-0277-4360-ae1d-59b7a7d5d9b8"/><linearGradient id="f6887d11-a3bc-438d-9f81-0c524d553411" x1="99.45" y1="9.56" x2="109.7" y2="9.56" xlink:href="#b153d85a-0277-4360-ae1d-59b7a7d5d9b8"/><linearGradient id="fcff62b2-5c27-42f3-970b-1811b0a29645" x1="103.4" y1="9.56" x2="113.65" y2="9.56" xlink:href="#b153d85a-0277-4360-ae1d-59b7a7d5d9b8"/><linearGradient id="bd28ead8-b645-427f-a9ba-b01045fb49de" x1="107.35" y1="9.56" x2="117.6" y2="9.56" xlink:href="#b153d85a-0277-4360-ae1d-59b7a7d5d9b8"/><linearGradient id="a28da1c6-c568-4642-842f-fa44d455a91f" x1="111.3" y1="9.56" x2="121.55" y2="9.56" xlink:href="#b153d85a-0277-4360-ae1d-59b7a7d5d9b8"/><linearGradient id="ab9582e0-13ad-4f12-8b7d-e0a6fa6146e9" x1="115.25" y1="9.56" x2="125.5" y2="9.56" xlink:href="#b153d85a-0277-4360-ae1d-59b7a7d5d9b8"/><linearGradient id="e858ac78-8458-45d3-8b60-bad04b073160" x1="119.2" y1="9.56" x2="129.45" y2="9.56" xlink:href="#b153d85a-0277-4360-ae1d-59b7a7d5d9b8"/><linearGradient id="f4028842-4fa9-482d-b92e-7906a8c4f09e" x1="123.15" y1="9.56" x2="133.4" y2="9.56" xlink:href="#b153d85a-0277-4360-ae1d-59b7a7d5d9b8"/><linearGradient id="a339cf1d-05a5-437c-af54-62293885a39c" x1="127.1" y1="9.56" x2="137.36" y2="9.56" xlink:href="#b153d85a-0277-4360-ae1d-59b7a7d5d9b8"/><linearGradient id="a8c0b1d3-4419-4c42-b3d4-073c74d03535" x1="131.06" y1="9.56" x2="141.31" y2="9.56" xlink:href="#b153d85a-0277-4360-ae1d-59b7a7d5d9b8"/><linearGradient id="b43e4705-1d90-4755-a354-e71ce8704899" x1="135.01" y1="9.56" x2="145.26" y2="9.56" xlink:href="#b153d85a-0277-4360-ae1d-59b7a7d5d9b8"/><linearGradient id="b8be5e34-7f34-4f73-9311-43db1724ecad" x1="138.96" y1="9.56" x2="149.21" y2="9.56" xlink:href="#b153d85a-0277-4360-ae1d-59b7a7d5d9b8"/><linearGradient id="e50054e4-e4dc-4369-844b-e406c7b2ab48" x1="142.91" y1="9.56" x2="153.16" y2="9.56" xlink:href="#b153d85a-0277-4360-ae1d-59b7a7d5d9b8"/><linearGradient id="a91f304a-4317-4e16-baaf-b335b4325620" x1="146.86" y1="9.56" x2="157.11" y2="9.56" xlink:href="#b153d85a-0277-4360-ae1d-59b7a7d5d9b8"/><linearGradient id="f388e7b6-45b3-4425-b651-ed4a90a593e8" x1="150.81" y1="9.56" x2="161.06" y2="9.56" xlink:href="#b153d85a-0277-4360-ae1d-59b7a7d5d9b8"/><linearGradient id="a7d1cf2a-3a47-47f7-b363-73fd05bb0556" x1="154.76" y1="9.56" x2="165.01" y2="9.56" xlink:href="#b153d85a-0277-4360-ae1d-59b7a7d5d9b8"/><linearGradient id="faa2c345-d0f8-4e31-bc02-2d2578b613c5" x1="158.71" y1="9.56" x2="168.96" y2="9.56" xlink:href="#b153d85a-0277-4360-ae1d-59b7a7d5d9b8"/><linearGradient id="a75a3b4f-5e14-47f3-bd39-97fc0cb7d06a" x1="162.66" y1="9.56" x2="172.91" y2="9.56" xlink:href="#b153d85a-0277-4360-ae1d-59b7a7d5d9b8"/><linearGradient id="edd17b9b-4acf-4ac3-93d9-2090efdfa607" x1="166.61" y1="9.56" x2="176.86" y2="9.56" xlink:href="#b153d85a-0277-4360-ae1d-59b7a7d5d9b8"/><linearGradient id="a3e37468-e684-4d70-8b6e-147cf3402331" x1="170.57" y1="11.55" x2="177.64" y2="11.55" xlink:href="#b153d85a-0277-4360-ae1d-59b7a7d5d9b8"/><linearGradient id="ead1350f-fc1b-4807-b3a4-92f6628fce4f" x1="174.52" y1="14.04" x2="177.64" y2="14.04" xlink:href="#b153d85a-0277-4360-ae1d-59b7a7d5d9b8"/><linearGradient id="b9c41d08-f3ea-4afe-b470-42aefcc16421" x1="3.05" y1="9.56" x2="177.69" y2="9.56" xlink:href="#b153d85a-0277-4360-ae1d-59b7a7d5d9b8"/><radialGradient id="bbb6f2e3-e640-42c3-87fc-d64500aa6486" cx="4847.5" cy="-4512.29" r="44.27" gradientTransform="matrix(0.11, 0, 0, 0.08, -467.03, 350.17)" gradientUnits="userSpaceOnUse"><stop offset="0" stop-color="#cacaca"/><stop offset="0.03" stop-color="#bcbcbc"/><stop offset="0.16" stop-color="#8a8a8a"/><stop offset="0.3" stop-color="#606060"/><stop offset="0.43" stop-color="#3d3d3d"/><stop offset="0.57" stop-color="#222"/><stop offset="0.71" stop-color="#0f0f0f"/><stop offset="0.85" stop-color="#040404"/><stop offset="1"/></radialGradient><radialGradient id="bc2ec3d8-8ff4-4a56-aa50-1549e5b89227" cx="4135.31" cy="-4395.04" r="44.27" gradientTransform="matrix(0.11, 0, 0, 0.08, -466.57, 353.9)" xlink:href="#bbb6f2e3-e640-42c3-87fc-d64500aa6486"/></defs><title>Asset 431</title><g class="fb4d34e5-17c7-4bd0-b483-4e6f22ccfc0c"><g id="bfc02f8b-7ad1-449d-8c73-c7bf3e7184a4" data-name="Layer 2"><g id="a459ec2e-65c7-4a8a-85b4-d27b9abd27b4" data-name="right SideBar"><g class="f1ce2208-2a76-465e-896d-8c6a0a669006"><path class="ecf26d74-7959-4338-8d71-e62c92e3cb71" d="M178.47,19.11H2.28A2.28,2.28,0,0,1,0,16.8V2.31A2.28,2.28,0,0,1,2.28,0H178.47a2.29,2.29,0,0,1,2.27,2.31V16.8A2.29,2.29,0,0,1,178.47,19.11ZM2.73,18.66H178a2.29,2.29,0,0,0,2.27-2.31V2.76A2.29,2.29,0,0,0,178,.45H2.73A2.3,2.3,0,0,0,.45,2.76V16.35A2.3,2.3,0,0,0,2.73,18.66Z"/><path class="e3ceb80a-ce4b-43b0-9694-800dd5fed516" d="M75.88,15.79H4.9a1.63,1.63,0,0,1-1.62-1.65V5A1.63,1.63,0,0,1,4.9,3.32H83.17A1.65,1.65,0,0,1,84.43,6l-7.28,9.17A1.63,1.63,0,0,1,75.88,15.79Z"/><polygon class="b5ddfcb7-e8da-40d5-acfe-5f83468b2b0c" points="80.04 15.93 79.69 15.64 89.59 3.18 89.94 3.46 80.04 15.93"/><polygon class="e7d3ff04-6a25-4242-b46d-cdb98963c747" points="83.99 15.93 83.64 15.64 93.55 3.18 93.89 3.46 83.99 15.93"/><polygon class="fa373570-4d91-464e-b8d6-f1c58117e85d" points="87.94 15.93 87.59 15.64 97.5 3.18 97.84 3.46 87.94 15.93"/><polygon class="ae96efa4-bc0b-4e2f-8c3f-fb58bac6f292" points="91.89 15.93 91.55 15.64 101.45 3.18 101.8 3.46 91.89 15.93"/><polygon class="bcdae569-5061-4e8c-bec1-bd4d289b511c" points="95.85 15.93 95.5 15.64 105.4 3.18 105.75 3.46 95.85 15.93"/><polygon class="ba114230-3ddd-4fc0-8d5f-76fb650fec7c" points="99.8 15.93 99.45 15.64 109.35 3.18 109.7 3.46 99.8 15.93"/><polygon class="a534f1ea-341e-41e0-a31b-7496aa8e0442" points="103.75 15.93 103.4 15.64 113.3 3.18 113.65 3.46 103.75 15.93"/><polygon class="e4779412-82c0-4f39-80f3-8c1ed424f189" points="107.7 15.93 107.35 15.64 117.25 3.18 117.6 3.46 107.7 15.93"/><polygon class="a4165f05-e3a4-47a7-95a7-9a4fe5130405" points="111.65 15.93 111.3 15.64 121.2 3.18 121.55 3.46 111.65 15.93"/><polygon class="bfa63b0a-afbd-4a38-b8ee-1b49048bb364" points="115.6 15.93 115.25 15.64 125.15 3.18 125.5 3.46 115.6 15.93"/><polygon class="ecbbf204-7356-4f5c-9aea-a124ab9d113e" points="119.55 15.93 119.2 15.64 129.1 3.18 129.45 3.46 119.55 15.93"/><polygon class="f7c8a9ff-48d0-404f-9925-a64bc34df3aa" points="123.5 15.93 123.15 15.64 133.06 3.18 133.4 3.46 123.5 15.93"/><polygon class="e65cbd36-8027-4329-8136-587fcdc21d23" points="127.45 15.93 127.11 15.64 137.01 3.18 137.35 3.46 127.45 15.93"/><polygon class="a68c74b9-41b0-4b8c-9e0b-e4b287bdea04" points="131.4 15.93 131.06 15.64 140.96 3.18 141.31 3.46 131.4 15.93"/><polygon class="bc1d5c57-9398-4de8-8641-d3013dc52e96" points="135.35 15.93 135.01 15.64 144.91 3.18 145.26 3.46 135.35 15.93"/><polygon class="ae3b5a31-efd2-4b4c-8735-cf25d4f7a508" points="139.31 15.93 138.96 15.64 148.86 3.18 149.21 3.46 139.31 15.93"/><polygon class="f23e7876-7b18-4cce-b662-c98315c67c32" points="143.26 15.93 142.91 15.64 152.81 3.18 153.16 3.46 143.26 15.93"/><polygon class="e9e9a90d-390e-4b86-a162-98018724a262" points="147.21 15.93 146.86 15.64 156.76 3.18 157.11 3.46 147.21 15.93"/><polygon class="b396c56c-3773-47fc-8c11-9c120751c8b5" points="151.16 15.93 150.81 15.64 160.71 3.18 161.06 3.46 151.16 15.93"/><polygon class="fd412820-e30d-489d-96a0-5ba868b6e5e7" points="155.11 15.93 154.76 15.64 164.66 3.18 165.01 3.46 155.11 15.93"/><polygon class="b7033f9f-106c-4dab-bbcd-075a635733ea" points="159.06 15.93 158.71 15.64 168.61 3.18 168.96 3.46 159.06 15.93"/><polygon class="e619cdb4-e3f3-461f-b0f7-16cb379de41d" points="163.01 15.93 162.66 15.64 172.56 3.18 172.91 3.46 163.01 15.93"/><polygon class="a7cb52de-996d-4f81-bab1-d35bc603a2c6" points="166.96 15.93 166.62 15.64 176.52 3.18 176.87 3.46 166.96 15.93"/><polygon class="f4ef3b2f-8872-444a-9b3a-23b7814b191d" points="170.91 15.93 170.56 15.64 177.29 7.17 177.64 7.46 170.91 15.93"/><polygon class="aadb4e47-716b-4d0f-b896-90adde164c94" points="174.87 15.93 174.52 15.64 177.29 12.15 177.64 12.43 174.87 15.93"/><path class="aa2790c5-fd41-4418-b2cc-94c0447cf5d5" d="M176.4,16H3.82a.77.77,0,0,1-.77-.78V3.91a.81.81,0,0,1,.8-.82H176.49a1.21,1.21,0,0,1,1.2,1.22v10.4A1.3,1.3,0,0,1,176.4,16ZM4.49,15.56H176.4a.84.84,0,0,0,.84-.85V4.22a.66.66,0,0,0-.65-.67H4.41a.92.92,0,0,0-.91.93V14.55A1,1,0,0,0,4.49,15.56Z"/><ellipse class="aa593dea-2291-45aa-8e00-11ab57339f8a" cx="83.79" cy="4.45" rx="4.91" ry="3.49" transform="translate(-0.12 3.95) rotate(-2.7)"/><ellipse class="e9f2caa4-6532-4b73-85bb-208d67cc1c27" cx="4.91" cy="15.95" rx="4.91" ry="3.49" transform="translate(-0.75 0.25) rotate(-2.7)"/></g></g></g></g></svg>