<svg xmlns="http://www.w3.org/2000/svg" xmlns:xlink="http://www.w3.org/1999/xlink" viewBox="0 0 106 86.34"><defs><style>.e1674e7e-e521-40ff-a18e-6b637840cc0d{opacity:0.43;fill:url(#a4f05242-9e96-47bc-9f81-019959e66c9a);}.a07018d9-1c95-41f7-85d6-a10778cde9c9{fill:#959595;}.aa0150d6-63cc-4aa3-a1f2-687c644ce59c{fill:#666;}.ec92d39c-84d0-4cf1-9847-a91db71f1b62{fill:#fff;}.fd37b7bb-8430-42f0-ac8e-00dc2162ca57{fill:none;stroke:#ccc;stroke-miterlimit:10;stroke-width:0.5px;}</style><linearGradient id="a4f05242-9e96-47bc-9f81-019959e66c9a" x1="11.41" y1="67.9" x2="105.82" y2="67.9" gradientTransform="translate(0.12 -1.33)" gradientUnits="userSpaceOnUse"><stop offset="0" stop-color="#0071bc" stop-opacity="0.2"/><stop offset="0.08" stop-color="#6797b7" stop-opacity="0.27"/><stop offset="0.25" stop-color="#8ba4b5" stop-opacity="0.48"/><stop offset="0.46" stop-color="#b3b3b3" stop-opacity="0.7"/><stop offset="1" stop-color="#e6e6e6" stop-opacity="0.5"/></linearGradient></defs><title>Asset 409</title><g id="ba1cbaf3-10a7-4905-8506-4507493370bb" data-name="Layer 2"><g id="aac81a32-56e5-47a6-aa90-82e35d6dfc89" data-name="Footer"><rect class="e1674e7e-e521-40ff-a18e-6b637840cc0d" x="11.53" y="57.14" width="94.41" height="18.86" transform="translate(-0.35 0.31) rotate(-0.3)"/><polygon class="a07018d9-1c95-41f7-85d6-a10778cde9c9" points="106 78.31 9.04 78.81 8.64 1.32 8.99 1.32 9.39 78.46 106 77.95 106 78.31"/><rect class="aa0150d6-63cc-4aa3-a1f2-687c644ce59c" x="4.46" y="78.47" width="4.76" height="0.35" transform="translate(-0.41 0.04) rotate(-0.3)"/><path class="ec92d39c-84d0-4cf1-9847-a91db71f1b62" d="M2.81,79c0,.76-.27,1.18-.77,1.19s-.73-.41-.74-1.15.31-1.16.77-1.17S2.81,78.32,2.81,79Zm-1.21,0c0,.58.18.91.46.91s.45-.36.45-.93-.15-.91-.46-.91S1.59,78.46,1.6,79.07Z"/><path class="ec92d39c-84d0-4cf1-9847-a91db71f1b62" d="M.37,65v-.18l.24-.23c.56-.55.82-.84.82-1.18A.4.4,0,0,0,1,63a.73.73,0,0,0-.48.19L.41,63a1,1,0,0,1,.64-.23.61.61,0,0,1,.68.64c0,.42-.29.75-.76,1.21l-.18.16h1V65Z"/><path class="ec92d39c-84d0-4cf1-9847-a91db71f1b62" d="M3.62,63.87c0,.77-.28,1.19-.78,1.19s-.73-.41-.74-1.15.32-1.16.77-1.16S3.61,63.16,3.62,63.87Zm-1.22.05c0,.58.19.91.46.91s.46-.37.45-.94S3.17,63,2.85,63,2.4,63.31,2.4,63.92Z"/><path class="ec92d39c-84d0-4cf1-9847-a91db71f1b62" d="M.36,49.18a1.11,1.11,0,0,0,.5.14.45.45,0,0,0,.5-.44c0-.31-.29-.45-.58-.45H.61v-.23H.78c.22,0,.5-.12.49-.38s-.11-.34-.39-.34a.83.83,0,0,0-.45.15l-.08-.22a1.06,1.06,0,0,1,.59-.17c.44,0,.64.25.64.53a.54.54,0,0,1-.41.52h0a.58.58,0,0,1,.5.57c0,.36-.27.68-.81.68a1.16,1.16,0,0,1-.58-.15Z"/><path class="ec92d39c-84d0-4cf1-9847-a91db71f1b62" d="M3.54,48.36c0,.77-.28,1.19-.78,1.19S2,49.14,2,48.4s.32-1.16.77-1.16S3.53,47.65,3.54,48.36Zm-1.22,0c0,.58.18.91.46.91s.46-.37.45-.94-.14-.91-.46-.91S2.32,47.8,2.32,48.41Z"/><path class="ec92d39c-84d0-4cf1-9847-a91db71f1b62" d="M1.14,34V33.4H.1v-.2l1-1.44h.33v1.39h.31v.24H1.43V34Zm0-.85V32.07h0c-.06.13-.12.22-.18.33l-.54.76h.73Z"/><path class="ec92d39c-84d0-4cf1-9847-a91db71f1b62" d="M3.45,32.86c0,.76-.27,1.18-.77,1.18s-.73-.41-.74-1.15.31-1.16.77-1.16S3.45,32.14,3.45,32.86Zm-1.21,0c0,.58.18.91.46.91s.45-.37.45-.94S3,32,2.69,32,2.24,32.29,2.24,32.9Z"/><path class="ec92d39c-84d0-4cf1-9847-a91db71f1b62" d="M1.45,16.34H.6l-.09.58.19,0a1,1,0,0,1,.48.12.62.62,0,0,1,.32.57.77.77,0,0,1-.83.77,1.05,1.05,0,0,1-.55-.13L.19,18a1.08,1.08,0,0,0,.48.12.5.5,0,0,0,.53-.49c0-.29-.2-.49-.65-.49l-.31,0,.14-1.07H1.45Z"/><path class="ec92d39c-84d0-4cf1-9847-a91db71f1b62" d="M3.37,17.17c0,.76-.27,1.18-.77,1.18s-.73-.4-.74-1.14S2.17,16,2.63,16,3.37,16.46,3.37,17.17Zm-1.21,0c0,.58.18.91.46.91s.45-.37.45-.94-.15-.91-.46-.91S2.15,16.6,2.16,17.21Z"/><path class="ec92d39c-84d0-4cf1-9847-a91db71f1b62" d="M1.31.26a.94.94,0,0,0-.23,0,.91.91,0,0,0-.77.8h0A.66.66,0,0,1,.86.81a.67.67,0,0,1,.68.72.75.75,0,0,1-.74.79C.32,2.32,0,2,0,1.37a1.41,1.41,0,0,1,.37-1A1.23,1.23,0,0,1,1.09,0a.94.94,0,0,1,.22,0ZM1.23,1.55A.46.46,0,0,0,.77,1a.5.5,0,0,0-.44.28.25.25,0,0,0,0,.13c0,.37.18.64.5.64S1.23,1.87,1.23,1.55Z"/><path class="ec92d39c-84d0-4cf1-9847-a91db71f1b62" d="M3.29,1.13c0,.76-.28,1.18-.77,1.18s-.74-.4-.75-1.14S2.09,0,2.54,0,3.29.42,3.29,1.13Zm-1.22,0c0,.58.19.91.46.91S3,1.72,3,1.14,2.84.23,2.53.23,2.07.56,2.07,1.17Z"/><rect class="aa0150d6-63cc-4aa3-a1f2-687c644ce59c" x="6.76" y="62.99" width="4.76" height="0.35" transform="translate(-0.33 0.05) rotate(-0.3)"/><rect class="aa0150d6-63cc-4aa3-a1f2-687c644ce59c" x="6.68" y="47.53" width="4.76" height="0.35" transform="translate(-0.25 0.05) rotate(-0.3)"/><rect class="aa0150d6-63cc-4aa3-a1f2-687c644ce59c" x="6.6" y="32.07" width="4.76" height="0.35" transform="translate(-0.17 0.05) rotate(-0.3)"/><rect class="aa0150d6-63cc-4aa3-a1f2-687c644ce59c" x="6.52" y="16.6" width="4.76" height="0.35" transform="translate(-0.09 0.05) rotate(-0.3)"/><rect class="aa0150d6-63cc-4aa3-a1f2-687c644ce59c" x="6.44" y="1.14" width="4.76" height="0.35" transform="translate(-0.01 0.05) rotate(-0.3)"/><path class="ec92d39c-84d0-4cf1-9847-a91db71f1b62" d="M20.31,84.39h0l-.38.21-.06-.23.48-.26h.26v2.24h-.29Z"/><path class="ec92d39c-84d0-4cf1-9847-a91db71f1b62" d="M40.4,86.24v-.19l.23-.23c.57-.55.83-.84.83-1.17a.4.4,0,0,0-.45-.44.78.78,0,0,0-.47.19l-.1-.21a1,1,0,0,1,.63-.23.63.63,0,0,1,.69.65c0,.41-.29.74-.76,1.2l-.18.17h1v.25Z"/><path class="ec92d39c-84d0-4cf1-9847-a91db71f1b62" d="M61.2,85.78a1,1,0,0,0,.5.14.44.44,0,0,0,.5-.44c0-.31-.29-.44-.58-.44h-.17v-.23h.17c.22,0,.5-.11.5-.38a.34.34,0,0,0-.4-.33.83.83,0,0,0-.45.15L61.19,84a1.06,1.06,0,0,1,.59-.18c.44,0,.64.26.64.53a.55.55,0,0,1-.41.53h0a.57.57,0,0,1,.5.57c0,.36-.27.67-.81.67a1.07,1.07,0,0,1-.58-.14Z"/><path class="ec92d39c-84d0-4cf1-9847-a91db71f1b62" d="M82.8,86v-.61h-1v-.2l1-1.43h.32v1.39h.31v.23h-.31V86Zm0-.85v-.75c0-.11,0-.23,0-.35h0a3.22,3.22,0,0,1-.19.33l-.54.77h.73Z"/><path class="ec92d39c-84d0-4cf1-9847-a91db71f1b62" d="M103.92,83.92h-.85l-.09.57h.19a1,1,0,0,1,.48.12.64.64,0,0,1,.32.57.77.77,0,0,1-.83.77,1.11,1.11,0,0,1-.56-.14l.08-.23a.84.84,0,0,0,.48.12.48.48,0,0,0,.52-.48c0-.29-.19-.5-.64-.5a2.16,2.16,0,0,0-.31,0l.14-1.07h1.07Z"/><rect class="aa0150d6-63cc-4aa3-a1f2-687c644ce59c" x="20.1" y="76.2" width="0.35" height="4.76" transform="translate(-0.41 0.11) rotate(-0.3)"/><rect class="aa0150d6-63cc-4aa3-a1f2-687c644ce59c" x="40.78" y="76.09" width="0.35" height="4.76" transform="translate(-0.41 0.21) rotate(-0.3)"/><rect class="aa0150d6-63cc-4aa3-a1f2-687c644ce59c" x="61.47" y="75.98" width="0.35" height="4.76" transform="translate(-0.41 0.32) rotate(-0.3)"/><rect class="aa0150d6-63cc-4aa3-a1f2-687c644ce59c" x="82.3" y="75.87" width="0.35" height="4.76" transform="translate(-0.41 0.43) rotate(-0.3)"/><rect class="aa0150d6-63cc-4aa3-a1f2-687c644ce59c" x="102.81" y="75.77" width="0.35" height="4.76" transform="translate(-0.41 0.54) rotate(-0.3)"/><polyline class="fd37b7bb-8430-42f0-ac8e-00dc2162ca57" points="14.92 63.35 36.27 34.74 50.35 49.66 71.69 18.05 81.81 41 102.82 43.89"/><path class="ec92d39c-84d0-4cf1-9847-a91db71f1b62" d="M17,62.91a1.63,1.63,0,1,1-1.38-1.85A1.62,1.62,0,0,1,17,62.91Z"/><path class="ec92d39c-84d0-4cf1-9847-a91db71f1b62" d="M38.37,34.87A1.64,1.64,0,1,1,37,33,1.63,1.63,0,0,1,38.37,34.87Z"/><path class="ec92d39c-84d0-4cf1-9847-a91db71f1b62" d="M52.4,49.26A1.64,1.64,0,1,1,51,47.41,1.63,1.63,0,0,1,52.4,49.26Z"/><path class="ec92d39c-84d0-4cf1-9847-a91db71f1b62" d="M84.09,41.09a1.64,1.64,0,1,1-1.39-1.85A1.63,1.63,0,0,1,84.09,41.09Z"/><path class="ec92d39c-84d0-4cf1-9847-a91db71f1b62" d="M104.11,44a1.64,1.64,0,1,1-1.39-1.85A1.63,1.63,0,0,1,104.11,44Z"/><path class="ec92d39c-84d0-4cf1-9847-a91db71f1b62" d="M73.29,18.23a1.64,1.64,0,1,1-1.39-1.85A1.65,1.65,0,0,1,73.29,18.23Z"/></g></g></svg>