<svg xmlns="http://www.w3.org/2000/svg" xmlns:xlink="http://www.w3.org/1999/xlink" viewBox="0 0 58.39 809.9"><defs><style>.b69be4b3-8bab-4802-8664-329cb9423632{stroke-miterlimit:10;fill:url(#bf3eb941-1bbb-4fff-8287-b6514f85ea6e);stroke:url(#eca08467-5389-4b5e-8dce-5f6863a9abc3);}</style><linearGradient id="bf3eb941-1bbb-4fff-8287-b6514f85ea6e" x1="0.5" y1="404.95" x2="57.89" y2="404.95" gradientUnits="userSpaceOnUse"><stop offset="0" stop-color="#0071bc" stop-opacity="0.35"/><stop offset="0.27" stop-color="#5688a8" stop-opacity="0.23"/><stop offset="0.33" stop-color="#6e8ea3" stop-opacity="0.2"/><stop offset="1" stop-color="#999" stop-opacity="0.3"/></linearGradient><linearGradient id="eca08467-5389-4b5e-8dce-5f6863a9abc3" y1="404.95" x2="58.39" y2="404.95" gradientUnits="userSpaceOnUse"><stop offset="0" stop-color="#b3b3b3" stop-opacity="0.4"/><stop offset="0.88" stop-color="#f2f2f2" stop-opacity="0.3"/></linearGradient></defs><title>Asset 497</title><g id="e30c416f-dcbc-48fb-b11d-3b8d97b81a30" data-name="Layer 2"><g id="f738076e-be79-445d-9171-823e150bf0b4" data-name="right SideBar"><path class="b69be4b3-8bab-4802-8664-329cb9423632" d="M57.89,3.88V805.41c0,1.5-1.62,4.51-3.07,3.92l-16-6.56c-3.17-1.3-5.23-6.26-5.23-9.54V723.49a3.27,3.27,0,0,0-1-2.39L2.71,692.85A7,7,0,0,1,.5,687.8V630.33A7.36,7.36,0,0,1,2.83,625l27.33-25.9a3.24,3.24,0,0,0,1-2.37V19.09a9.55,9.55,0,0,1,3-6.95L51.8,1.5C54.05-.63,57.89.88,57.89,3.88Z"/></g></g></svg>