<svg xmlns="http://www.w3.org/2000/svg" xmlns:xlink="http://www.w3.org/1999/xlink" viewBox="0 0 81.27 77.94"><defs><style>.edab833d-23fb-4bf7-a44e-2c453b789a09{stroke-miterlimit:10;stroke-width:0.5px;fill:url(#b9a5c2fb-82db-4d97-8cb6-02db3835e778);stroke:url(#fdbe786f-b255-4f57-82ff-37fc5cd4a551);}.aba7d18e-060d-4d23-82a8-3accb449641e{fill:#29abe2;}.fe75a113-e6fe-4d14-9e6b-ae60614627b3{fill:url(#b7e0d9be-4b94-46f1-9856-4933cb0a3ecc);}.af1c3bce-2397-4201-b87d-7398f81aa1a1{fill:url(#abe4c4f4-dc5a-423a-a5b6-0a9827617d58);}.e28ce0a9-a764-4493-b0ed-6490295bf554{fill:url(#a7354466-846a-49ae-aac6-243e88aeff31);}.f20a76ea-02c1-4419-b0e1-1a7352f4c5a9{fill:url(#bf78e644-3df7-4712-8b9c-4ca90dd0a523);}.f45aa4a0-695f-4ef1-a66f-0ee00f59cb36{fill:url(#ab6579f7-eda7-4b22-86b1-9f86fcc8bac9);}.a36c274a-14f3-428a-902e-d07f4aab998c{fill:url(#ff53a5b6-ff13-4f36-b871-ce6b51eee16d);}</style><linearGradient id="b9a5c2fb-82db-4d97-8cb6-02db3835e778" x1="40.63" y1="0.25" x2="40.63" y2="77.69" gradientUnits="userSpaceOnUse"><stop offset="0" stop-color="#f2f2f2" stop-opacity="0.2"/><stop offset="0.68" stop-color="#539dcf" stop-opacity="0.2"/><stop offset="1" stop-color="#0071bc" stop-opacity="0.2"/></linearGradient><linearGradient id="fdbe786f-b255-4f57-82ff-37fc5cd4a551" y1="38.97" x2="81.27" y2="38.97" gradientUnits="userSpaceOnUse"><stop offset="0.16" stop-color="#dfdfdf" stop-opacity="0.7"/><stop offset="0.53" stop-color="#939393" stop-opacity="0.7"/><stop offset="0.96" stop-color="#fff" stop-opacity="0.7"/></linearGradient><linearGradient id="b7e0d9be-4b94-46f1-9856-4933cb0a3ecc" x1="39.11" y1="38.81" x2="39.44" y2="38.81" gradientUnits="userSpaceOnUse"><stop offset="0.01" stop-color="#999"/><stop offset="1" stop-color="#ccc"/></linearGradient><linearGradient id="abe4c4f4-dc5a-423a-a5b6-0a9827617d58" x1="7.46" y1="38.81" x2="71.09" y2="38.81" xlink:href="#b7e0d9be-4b94-46f1-9856-4933cb0a3ecc"/><linearGradient id="a7354466-846a-49ae-aac6-243e88aeff31" x1="3.62" y1="11.19" x2="17.33" y2="11.19" xlink:href="#b7e0d9be-4b94-46f1-9856-4933cb0a3ecc"/><linearGradient id="bf78e644-3df7-4712-8b9c-4ca90dd0a523" x1="61.22" y1="11.19" x2="74.93" y2="11.19" xlink:href="#b7e0d9be-4b94-46f1-9856-4933cb0a3ecc"/><linearGradient id="ab6579f7-eda7-4b22-86b1-9f86fcc8bac9" x1="3.62" y1="66.42" x2="17.33" y2="66.42" xlink:href="#b7e0d9be-4b94-46f1-9856-4933cb0a3ecc"/><linearGradient id="ff53a5b6-ff13-4f36-b871-ce6b51eee16d" x1="61.22" y1="66.42" x2="74.93" y2="66.42" xlink:href="#b7e0d9be-4b94-46f1-9856-4933cb0a3ecc"/></defs><title>Asset 432</title><g id="b475d565-8d01-4dca-9ca3-0c0ec60ea038" data-name="Layer 2"><g id="bfc90114-7722-4064-baf3-19bf2293d92f" data-name="right SideBar"><rect class="edab833d-23fb-4bf7-a44e-2c453b789a09" x="0.25" y="0.25" width="80.77" height="77.44"/><path class="aba7d18e-060d-4d23-82a8-3accb449641e" d="M39.28,62.17c-13.44,0-24.38-10.48-24.38-23.36S25.84,15.44,39.28,15.44,63.65,25.92,63.65,38.81,52.71,62.17,39.28,62.17Zm0-46.42c-13.27,0-24,10.34-24,23.06S26,61.87,39.28,61.87s24-10.35,24-23.06S52.54,15.75,39.28,15.75Z"/><path class="aba7d18e-060d-4d23-82a8-3accb449641e" d="M39.28,54.72c-9.16,0-16.61-7.14-16.61-15.91s7.45-15.92,16.61-15.92S55.88,30,55.88,38.81,48.43,54.72,39.28,54.72Zm0-31.52c-9,0-16.28,7-16.28,15.61s7.3,15.61,16.28,15.61,16.27-7,16.27-15.61S48.25,23.2,39.28,23.2Z"/><rect class="fe75a113-e6fe-4d14-9e6b-ae60614627b3" x="39.11" y="8.3" width="0.32" height="61.02"/><rect class="af1c3bce-2397-4201-b87d-7398f81aa1a1" x="7.46" y="38.65" width="63.64" height="0.31"/><polygon class="e28ce0a9-a764-4493-b0ed-6490295bf554" points="3.94 17.77 3.62 17.77 3.62 4.62 17.33 4.62 17.33 4.93 3.94 4.93 3.94 17.77"/><polygon class="f20a76ea-02c1-4419-b0e1-1a7352f4c5a9" points="74.93 17.77 74.61 17.77 74.61 4.93 61.22 4.93 61.22 4.62 74.93 4.62 74.93 17.77"/><polygon class="f45aa4a0-695f-4ef1-a66f-0ee00f59cb36" points="17.33 72.99 3.62 72.99 3.62 59.85 3.94 59.85 3.94 72.69 17.33 72.69 17.33 72.99"/><polygon class="a36c274a-14f3-428a-902e-d07f4aab998c" points="74.93 72.99 61.22 72.99 61.22 72.69 74.61 72.69 74.61 59.85 74.93 59.85 74.93 72.99"/></g></g></svg>