<svg xmlns="http://www.w3.org/2000/svg" xmlns:xlink="http://www.w3.org/1999/xlink" viewBox="0 0 1468.37 115"><defs><style>.b5040e55-79d7-4686-9f9d-aed834b47c3c{fill:url(#f1adcea8-51af-4e19-940f-5b4c9bd65000);}.b9202bbf-9230-4423-b7c2-4fb4eced51ed{fill:url(#e8f6919c-9df5-4d5e-86e8-90d53b4d8766);}.acc8b15f-8f65-4520-be04-b1be7ed1d9b4{fill:url(#b6ab9bf4-d057-44b7-ba7e-c958d809b9ab);}.e3833f63-e9d4-4995-8524-23c5842d29e6{fill:url(#f7ec38c5-ee9c-4b2a-967e-61f421e3c640);}.fde568ff-b94f-4b7e-acc5-478114809d77{fill:url(#a214b0be-b286-42b6-be3e-5cc479e10bb8);}.e8ef8f28-7492-4473-b41c-bf8544edbe02{fill:url(#fd755e1c-3032-4d75-9ee2-da5ea955e988);}</style><linearGradient id="f1adcea8-51af-4e19-940f-5b4c9bd65000" x1="487.68" y1="115" x2="487.68" gradientUnits="userSpaceOnUse"><stop offset="0" stop-color="#e6e6e6"/><stop offset="0.16" stop-color="#b9b9b9"/><stop offset="0.36" stop-color="#8a8a8a"/><stop offset="0.55" stop-color="#646464"/><stop offset="0.73" stop-color="#494949"/><stop offset="0.88" stop-color="#393939"/><stop offset="1" stop-color="#333"/></linearGradient><linearGradient id="e8f6919c-9df5-4d5e-86e8-90d53b4d8766" x1="244.68" x2="244.68" xlink:href="#f1adcea8-51af-4e19-940f-5b4c9bd65000"/><linearGradient id="b6ab9bf4-d057-44b7-ba7e-c958d809b9ab" x1="0.68" x2="0.68" xlink:href="#f1adcea8-51af-4e19-940f-5b4c9bd65000"/><linearGradient id="f7ec38c5-ee9c-4b2a-967e-61f421e3c640" x1="977.68" x2="977.68" xlink:href="#f1adcea8-51af-4e19-940f-5b4c9bd65000"/><linearGradient id="a214b0be-b286-42b6-be3e-5cc479e10bb8" x1="1222.68" x2="1222.68" xlink:href="#f1adcea8-51af-4e19-940f-5b4c9bd65000"/><linearGradient id="fd755e1c-3032-4d75-9ee2-da5ea955e988" x1="1467.68" x2="1467.68" xlink:href="#f1adcea8-51af-4e19-940f-5b4c9bd65000"/></defs><title>Asset 503</title><g id="e52db4e9-2cba-4f73-bb30-e9de6219a503" data-name="Layer 2"><g id="b95f726f-6afe-4965-bb71-df659963104c" data-name="HEADER BOUNDS"><path class="b5040e55-79d7-4686-9f9d-aed834b47c3c" d="M487,6.09s0,108.43.6,108.91.77-108.91.77-108.91C488.37-2,487-2,487,6.09Z"/><path class="b9202bbf-9230-4423-b7c2-4fb4eced51ed" d="M244,6.09s0,108.43.6,108.91.77-108.91.77-108.91C245.37-2,244-2,244,6.09Z"/><path class="acc8b15f-8f65-4520-be04-b1be7ed1d9b4" d="M0,6.09S0,114.52.6,115,1.37,6.09,1.37,6.09C1.37-2,0-2,0,6.09Z"/><path class="e3833f63-e9d4-4995-8524-23c5842d29e6" d="M977,6.09s0,108.43.6,108.91.77-108.91.77-108.91C978.37-2,977-2,977,6.09Z"/><path class="fde568ff-b94f-4b7e-acc5-478114809d77" d="M1222,6.09s0,108.43.6,108.91.77-108.91.77-108.91C1223.37-2,1222-2,1222,6.09Z"/><path class="e8ef8f28-7492-4473-b41c-bf8544edbe02" d="M1467,6.09s0,108.43.6,108.91.77-108.91.77-108.91C1468.37-2,1467-2,1467,6.09Z"/></g></g></svg>