<svg xmlns="http://www.w3.org/2000/svg" xmlns:xlink="http://www.w3.org/1999/xlink" viewBox="0 0 1921 184.17"><defs><style>.add3c7a2-0c06-431b-9d50-b1051f3e985d{stroke-miterlimit:10;opacity:0.6;fill:url(#a84ce920-68bb-4155-9ad3-1d9cc97d94eb);stroke:url(#bd8f28ee-fed3-4cd4-b28a-4d11b7dbad9e);}</style><linearGradient id="a84ce920-68bb-4155-9ad3-1d9cc97d94eb" x1="960.5" y1="0.5" x2="960.5" y2="183.67" gradientUnits="userSpaceOnUse"><stop offset="0" stop-color="#0071bc" stop-opacity="0.5"/><stop offset="0.2" stop-color="#1a78b6" stop-opacity="0.59"/><stop offset="0.64" stop-color="#5d89a7" stop-opacity="0.8"/><stop offset="1" stop-color="#999"/></linearGradient><linearGradient id="bd8f28ee-fed3-4cd4-b28a-4d11b7dbad9e" y1="92.08" x2="1921" y2="92.08" gradientUnits="userSpaceOnUse"><stop offset="0.12" stop-color="#e6e6e6" stop-opacity="0.3"/><stop offset="0.52" stop-color="#939393" stop-opacity="0.4"/><stop offset="1" stop-color="#f2f2f2" stop-opacity="0.5"/></linearGradient></defs><title>header BAR</title><g id="a895e464-c181-45cf-8aa5-afff5c463b23" data-name="Layer 2"><g id="b3386108-b359-47c7-9ffd-967fb20e7ff6" data-name="HEADER BOUNDS"><path id="bdd86fd5-550b-425c-b8a4-2924217fe724" data-name="header BAR" class="add3c7a2-0c06-431b-9d50-b1051f3e985d" d="M1920.5.5V21a19.44,19.44,0,0,1-5.25,13.28l-30.33,32.38a14.27,14.27,0,0,0-3.79,9.76v90.67c0,7.59-5.73,13.75-12.83,13.8-107.73.73-858.22,5.61-905,.44a20.63,20.63,0,0,0-4.58,0c-46.79,5.17-797.28.29-905-.44-7.1,0-12.83-6.21-12.83-13.8V76.41a14.27,14.27,0,0,0-3.79-9.76L5.75,33.21A19.44,19.44,0,0,1,.5,19.93V.5Z"/></g></g></svg>