<svg xmlns="http://www.w3.org/2000/svg" xmlns:xlink="http://www.w3.org/1999/xlink" viewBox="0 0 295 344.99"><defs><style>.b74ef66e-3b3e-44cd-b05d-091dcf0b1605{isolation:isolate;}.a3bac2ec-d4e0-4c46-a1b2-2e0d7b2d3495,.ebe80c51-3b3c-43ca-b53c-ce1e5d3ae030{opacity:0.8;}.a019c956-3a40-41d0-9ed2-2c2ad6638d80,.a35d7393-444c-4506-b966-713ebba363f9,.a49d8d29-808f-41c6-8d73-1a970a4e217f,.a6d9fbeb-d723-4b07-b3c3-2db1c2e1ee4f,.a92ecf1d-c97b-45c8-ad82-6fbf30b84933,.abbcd1b7-2c50-4115-8fdb-d8b8b9316c88,.b015c6ea-3212-446f-9441-234e9081f888,.b047d6c2-491e-4ab3-9ee6-add8a74df06e,.e215bfdd-6142-4176-84c8-f4bfc99f896f,.ebe80c51-3b3c-43ca-b53c-ce1e5d3ae030,.fdcb38e9-ea57-4d84-9f67-32963a191d11{stroke-miterlimit:10;}.a35d7393-444c-4506-b966-713ebba363f9{opacity:0.75;fill:url(#f9c943b9-5796-4639-8997-81568d9ed000);stroke:url(#b5c4998f-8766-4c86-92b0-e8315134e609);}.a019c956-3a40-41d0-9ed2-2c2ad6638d80,.b047d6c2-491e-4ab3-9ee6-add8a74df06e,.e215bfdd-6142-4176-84c8-f4bfc99f896f{opacity:0.4;}.e215bfdd-6142-4176-84c8-f4bfc99f896f{fill:url(#ab1a2cfd-52ce-4f2c-8b62-e96e83380ce4);stroke:url(#bce4dbb0-aa48-46ef-bd47-19e6b5c0f7ec);}.a6d9fbeb-d723-4b07-b3c3-2db1c2e1ee4f,.b015c6ea-3212-446f-9441-234e9081f888,.fdcb38e9-ea57-4d84-9f67-32963a191d11{opacity:0.6;}.a6d9fbeb-d723-4b07-b3c3-2db1c2e1ee4f{fill:url(#a510a74f-176f-49b5-8103-1fea44394f91);stroke:url(#ff7f323c-c89f-4df5-bead-078c605f3c11);}.a019c956-3a40-41d0-9ed2-2c2ad6638d80{fill:url(#a21821d8-5d5f-4c8d-a9b8-19a51d45763f);stroke:url(#a1ded4c9-5732-484f-bbdb-8ced002b8c58);}.ebe80c51-3b3c-43ca-b53c-ce1e5d3ae030{fill:url(#e504578f-e0e2-4c5f-bceb-5b06ad5ede44);stroke:url(#e0c7687b-d9a3-4cd8-b9e6-6d90ab907e4a);}.b015c6ea-3212-446f-9441-234e9081f888{fill:url(#e7ee3a96-855b-4120-b6b2-fcb78fd1cb31);stroke:url(#b8b15d98-35aa-442d-8eca-26367091876e);}.b047d6c2-491e-4ab3-9ee6-add8a74df06e{fill:url(#a180a68b-a0c4-43f4-b979-9a5ebfc610c5);stroke:url(#bf4bb04c-77be-4180-8e55-36acf5e60da8);}.fdcb38e9-ea57-4d84-9f67-32963a191d11{fill:url(#b7346c33-3513-4f14-9763-7530ac5f7aeb);stroke:url(#a337af99-dbe5-42b5-988a-a52958220945);}.a92ecf1d-c97b-45c8-ad82-6fbf30b84933{opacity:0.69;fill:url(#a69cfef8-dbb1-46b0-88f3-71a8500831e8);stroke:url(#fcb88db4-315f-470d-944d-57a390c3ca89);}.a92ecf1d-c97b-45c8-ad82-6fbf30b84933,.abbcd1b7-2c50-4115-8fdb-d8b8b9316c88{mix-blend-mode:screen;}.abbcd1b7-2c50-4115-8fdb-d8b8b9316c88{opacity:0.46;fill:url(#eabca4d9-f691-4dcf-9db6-5a32d19d5769);stroke:url(#b4b7e1d1-d2ed-4c49-b7be-61344bebed9f);}.a49d8d29-808f-41c6-8d73-1a970a4e217f{fill:url(#b161b630-172a-4c8b-9289-f2dcc592c17d);stroke:url(#b5f8b5d1-80e2-46c9-b702-e7f55f094e62);}</style><linearGradient id="f9c943b9-5796-4639-8997-81568d9ed000" x1="0.5" y1="17.25" x2="124.23" y2="17.25" gradientUnits="userSpaceOnUse"><stop offset="0" stop-color="#0071bc" stop-opacity="0.5"/><stop offset="0.46" stop-color="#4182ad" stop-opacity="0.46"/><stop offset="1" stop-color="#999" stop-opacity="0.4"/></linearGradient><linearGradient id="b5c4998f-8766-4c86-92b0-e8315134e609" y1="17.25" x2="124.23" y2="17.25" gradientUnits="userSpaceOnUse"><stop offset="0.12" stop-color="#e6e6e6" stop-opacity="0.3"/><stop offset="0.17" stop-color="#e7e7e7" stop-opacity="0.32"/><stop offset="0.23" stop-color="#e9e9e9" stop-opacity="0.37"/><stop offset="0.29" stop-color="#ececec" stop-opacity="0.47"/><stop offset="0.36" stop-color="#f0f0f0" stop-opacity="0.59"/><stop offset="0.43" stop-color="#f6f6f6" stop-opacity="0.76"/><stop offset="0.5" stop-color="#fdfdfd" stop-opacity="0.95"/><stop offset="0.52" stop-color="#fff"/><stop offset="0.53" stop-color="#fdfdfd" stop-opacity="0.94"/><stop offset="0.56" stop-color="#fafafa" stop-opacity="0.82"/><stop offset="0.59" stop-color="#f8f8f8" stop-opacity="0.72"/><stop offset="0.63" stop-color="#f6f6f6" stop-opacity="0.64"/><stop offset="0.67" stop-color="#f4f4f4" stop-opacity="0.58"/><stop offset="0.72" stop-color="#f3f3f3" stop-opacity="0.53"/><stop offset="0.8" stop-color="#f2f2f2" stop-opacity="0.51"/><stop offset="1" stop-color="#f2f2f2" stop-opacity="0.5"/></linearGradient><linearGradient id="ab1a2cfd-52ce-4f2c-8b62-e96e83380ce4" x1="244.55" y1="189" x2="294.5" y2="189" xlink:href="#f9c943b9-5796-4639-8997-81568d9ed000"/><linearGradient id="bce4dbb0-aa48-46ef-bd47-19e6b5c0f7ec" x1="244.55" y1="189" x2="295" y2="189" xlink:href="#b5c4998f-8766-4c86-92b0-e8315134e609"/><linearGradient id="a510a74f-176f-49b5-8103-1fea44394f91" x1="12" y1="189.5" x2="26" y2="189.5" xlink:href="#f9c943b9-5796-4639-8997-81568d9ed000"/><linearGradient id="ff7f323c-c89f-4df5-bead-078c605f3c11" x1="11.5" y1="189.5" x2="26.5" y2="189.5" xlink:href="#b5c4998f-8766-4c86-92b0-e8315134e609"/><linearGradient id="a21821d8-5d5f-4c8d-a9b8-19a51d45763f" x1="26" y1="190" x2="40" y2="190" xlink:href="#f9c943b9-5796-4639-8997-81568d9ed000"/><linearGradient id="a1ded4c9-5732-484f-bbdb-8ced002b8c58" x1="25.5" y1="190" x2="40.5" y2="190" xlink:href="#b5c4998f-8766-4c86-92b0-e8315134e609"/><linearGradient id="e504578f-e0e2-4c5f-bceb-5b06ad5ede44" y1="189" x2="266.5" y2="189" xlink:href="#f9c943b9-5796-4639-8997-81568d9ed000"/><linearGradient id="e0c7687b-d9a3-4cd8-b9e6-6d90ab907e4a" y1="189" x2="267" y2="189" xlink:href="#b5c4998f-8766-4c86-92b0-e8315134e609"/><linearGradient id="e7ee3a96-855b-4120-b6b2-fcb78fd1cb31" x1="230.55" y1="189" x2="280.5" y2="189" xlink:href="#f9c943b9-5796-4639-8997-81568d9ed000"/><linearGradient id="b8b15d98-35aa-442d-8eca-26367091876e" x1="230.55" y1="189" x2="281" y2="189" xlink:href="#b5c4998f-8766-4c86-92b0-e8315134e609"/><linearGradient id="a180a68b-a0c4-43f4-b979-9a5ebfc610c5" x1="99.27" x2="152.23" xlink:href="#f9c943b9-5796-4639-8997-81568d9ed000"/><linearGradient id="bf4bb04c-77be-4180-8e55-36acf5e60da8" x1="99.27" x2="152.23" xlink:href="#b5c4998f-8766-4c86-92b0-e8315134e609"/><linearGradient id="b7346c33-3513-4f14-9763-7530ac5f7aeb" x1="85.27" x2="138.23" xlink:href="#f9c943b9-5796-4639-8997-81568d9ed000"/><linearGradient id="a337af99-dbe5-42b5-988a-a52958220945" x1="85.27" x2="138.23" xlink:href="#b5c4998f-8766-4c86-92b0-e8315134e609"/><linearGradient id="a69cfef8-dbb1-46b0-88f3-71a8500831e8" x1="442.53" y1="-22.91" x2="458.33" y2="-40.45" gradientTransform="translate(254.57 -117.36) rotate(90)" xlink:href="#f9c943b9-5796-4639-8997-81568d9ed000"/><linearGradient id="fcb88db4-315f-470d-944d-57a390c3ca89" x1="260.76" y1="325.19" x2="294.57" y2="325.19" xlink:href="#b5c4998f-8766-4c86-92b0-e8315134e609"/><linearGradient id="eabca4d9-f691-4dcf-9db6-5a32d19d5769" x1="442.86" y1="-22.84" x2="451.58" y2="-32.53" gradientTransform="translate(254.57 -117.36) rotate(90)" xlink:href="#f9c943b9-5796-4639-8997-81568d9ed000"/><linearGradient id="b4b7e1d1-d2ed-4c49-b7be-61344bebed9f" x1="267.68" y1="325.32" x2="287.07" y2="325.32" xlink:href="#b5c4998f-8766-4c86-92b0-e8315134e609"/><linearGradient id="b161b630-172a-4c8b-9289-f2dcc592c17d" x1="124.23" y1="34" x2="124.5" y2="34" xlink:href="#f9c943b9-5796-4639-8997-81568d9ed000"/><linearGradient id="b5f8b5d1-80e2-46c9-b702-e7f55f094e62" x1="124.23" y1="34" x2="124.5" y2="34" xlink:href="#b5c4998f-8766-4c86-92b0-e8315134e609"/></defs><title>Notification bar</title><g class="b74ef66e-3b3e-44cd-b05d-091dcf0b1605"><g id="b1804ffc-a643-4e92-9573-fd3d13647283" data-name="Layer 2"><g id="ba9c1b25-48de-4cee-bcca-8d93fda06442" data-name="left side notification bar"><g id="f593e2e2-c72c-4de3-9603-69dd89ee4b29" data-name="Notification bar" class="a3bac2ec-d4e0-4c46-a1b2-2e0d7b2d3495"><path class="a35d7393-444c-4506-b966-713ebba363f9" d="M124.23,34H.5V7.09A6.59,6.59,0,0,1,7.09.5H85.27a6.58,6.58,0,0,1,4.66,1.93l29.64,29.64A6.58,6.58,0,0,0,124.23,34Z"/><path class="e215bfdd-6142-4176-84c8-f4bfc99f896f" d="M294.5,47V304.49a6.63,6.63,0,0,1-1.67,4.39L263.47,341.8a6.59,6.59,0,0,1-4.92,2.2h-14a6.59,6.59,0,0,0,4.92-2.2l29.36-32.92a6.63,6.63,0,0,0,1.67-4.39V47a13,13,0,0,0-13-13h14A13,13,0,0,1,294.5,47Z"/><rect class="a6d9fbeb-d723-4b07-b3c3-2db1c2e1ee4f" x="12" y="65" width="14" height="249"/><rect class="a019c956-3a40-41d0-9ed2-2c2ad6638d80" x="26" y="65.5" width="14" height="249"/><path class="ebe80c51-3b3c-43ca-b53c-ce1e5d3ae030" d="M253.52,34H.5V337.41A6.59,6.59,0,0,0,7.09,344H230.55a6.59,6.59,0,0,0,4.92-2.2l29.36-32.92a6.63,6.63,0,0,0,1.67-4.39V47A13,13,0,0,0,253.52,34Zm-21,240.27a6.58,6.58,0,0,1-1.93,4.66l-33.14,33.14a6.58,6.58,0,0,1-4.66,1.93H12V65H225.91a6.59,6.59,0,0,1,6.59,6.59Z"/><path class="b015c6ea-3212-446f-9441-234e9081f888" d="M280.5,47V304.49a6.63,6.63,0,0,1-1.67,4.39L249.47,341.8a6.59,6.59,0,0,1-4.92,2.2h-14a6.59,6.59,0,0,0,4.92-2.2l29.36-32.92a6.63,6.63,0,0,0,1.67-4.39V47a13,13,0,0,0-13-13h14A13,13,0,0,1,280.5,47Z"/><path class="b047d6c2-491e-4ab3-9ee6-add8a74df06e" d="M152.23,34h-14a6.58,6.58,0,0,1-4.66-1.93L103.93,2.43A6.58,6.58,0,0,0,99.27.5h14a6.58,6.58,0,0,1,4.66,1.93l29.64,29.64A6.58,6.58,0,0,0,152.23,34Z"/><path class="fdcb38e9-ea57-4d84-9f67-32963a191d11" d="M138.23,34h-14a6.58,6.58,0,0,1-4.66-1.93L89.93,2.43A6.58,6.58,0,0,0,85.27.5h14a6.58,6.58,0,0,1,4.66,1.93l29.64,29.64A6.58,6.58,0,0,0,138.23,34Z"/><path class="a92ecf1d-c97b-45c8-ad82-6fbf30b84933" d="M261.86,344.47l32.21-37.73V341a2.73,2.73,0,0,1-2.65,2.72Z"/><path class="abbcd1b7-2c50-4115-8fdb-d8b8b9316c88" d="M268.79,336.15l17.78-20.83v18.91a1.5,1.5,0,0,1-1.46,1.5Z"/><line class="a49d8d29-808f-41c6-8d73-1a970a4e217f" x1="124.5" y1="34" x2="124.23" y2="34"/></g></g></g></g></svg>