<svg xmlns="http://www.w3.org/2000/svg" viewBox="0 0 45.18 53.59"><defs><style>.cls-1{opacity:0.43;}.cls-2{fill:#fff;}</style></defs><title>generate icon</title><g id="Layer_2" data-name="Layer 2"><g id="Side_Buttons" data-name="Side Buttons"><g class="cls-1"><path class="cls-2" d="M41.84,2.51H37.68a.82.82,0,0,0-.84.79.81.81,0,0,0,.84.78h.52V47.43H7V4.08h3.48V5.87A2.58,2.58,0,0,0,13.1,8.35h4a4.6,4.6,0,0,0,4.6,3.6h1.86a4.61,4.61,0,0,0,4.6-3.6h3.95a2.58,2.58,0,0,0,2.65-2.48V2.48A2.57,2.57,0,0,0,32.08,0h-19a2.57,2.57,0,0,0-2.64,2.48v0H3.33A3.25,3.25,0,0,0,0,5.64V37.16a.81.81,0,0,0,.84.78.81.81,0,0,0,.83-.78V5.64A1.62,1.62,0,0,1,3.33,4.08h2V48.22a.81.81,0,0,0,.84.78H39a.81.81,0,0,0,.84-.78V4.08h2a1.62,1.62,0,0,1,1.67,1.56V50.46A1.62,1.62,0,0,1,41.84,52H3.33a1.62,1.62,0,0,1-1.66-1.56v-9.6a.81.81,0,0,0-.83-.78.81.81,0,0,0-.84.78v9.6a3.24,3.24,0,0,0,3.33,3.13H41.84a3.24,3.24,0,0,0,3.34-3.13V5.64a3.25,3.25,0,0,0-3.34-3.13Zm-29.71,0a1,1,0,0,1,1-.91h19a.94.94,0,0,1,1,.91V5.87a.94.94,0,0,1-1,.91H27.36a.81.81,0,0,0-.83.78,2.92,2.92,0,0,1-3,2.82H21.66a2.92,2.92,0,0,1-3-2.82.81.81,0,0,0-.83-.78H13.1a1,1,0,0,1-1-.91Z"/><path class="cls-2" d="M33.24,34.43H11.94a.79.79,0,1,0,0,1.57h21.3a.79.79,0,1,0,0-1.57Zm0-7.64H11.94a.79.79,0,1,0,0,1.57h21.3a.79.79,0,1,0,0-1.57Zm0-7.65H11.94a.79.79,0,1,0,0,1.57h21.3a.79.79,0,1,0,0-1.57Z"/><path class="cls-2" d="M33.24,41.34H11.94a.79.79,0,1,0,0,1.57h21.3a.79.79,0,1,0,0-1.57Z"/></g></g></g></svg>